<svg width="192" height="196" viewBox="0 0 192 196" fill="none" xmlns="http://www.w3.org/2000/svg">
<g clip-path="url(#clip0)">
<path d="M0.884 195.867C0.678667 195.867 0.510667 195.811 0.38 195.699C0.249333 195.569 0.184 195.401 0.184 195.195V176.967C0.184 176.762 0.249333 176.594 0.38 176.463C0.510667 176.333 0.678667 176.267 0.884 176.267H3.096C3.488 176.267 3.768 176.445 3.936 176.799L9.34 186.879L14.8 176.799C14.9867 176.445 15.2667 176.267 15.64 176.267H17.824C18.0293 176.267 18.1973 176.333 18.328 176.463C18.4587 176.594 18.524 176.762 18.524 176.967V195.195C18.524 195.401 18.4587 195.569 18.328 195.699C18.1973 195.811 18.0293 195.867 17.824 195.867H15.472C15.2853 195.867 15.1267 195.802 14.996 195.671C14.8653 195.541 14.8 195.382 14.8 195.195V183.071L10.88 190.547C10.6373 190.958 10.32 191.163 9.928 191.163H8.78C8.388 191.163 8.07067 190.958 7.828 190.547L3.908 183.071V195.195C3.908 195.382 3.84267 195.541 3.712 195.671C3.6 195.802 3.44133 195.867 3.236 195.867H0.884ZM22.8513 195.867C22.6646 195.867 22.506 195.802 22.3753 195.671C22.2446 195.541 22.1793 195.382 22.1793 195.195V176.967C22.1793 176.762 22.2353 176.594 22.3473 176.463C22.478 176.333 22.646 176.267 22.8513 176.267H35.1713C35.3766 176.267 35.5446 176.333 35.6753 176.463C35.806 176.594 35.8713 176.762 35.8713 176.967V178.815C35.8713 179.021 35.806 179.189 35.6753 179.319C35.5446 179.431 35.3766 179.487 35.1713 179.487H25.9593V184.443H34.5553C34.7606 184.443 34.9286 184.509 35.0593 184.639C35.19 184.751 35.2553 184.91 35.2553 185.115V186.851C35.2553 187.057 35.19 187.225 35.0593 187.355C34.9286 187.467 34.7606 187.523 34.5553 187.523H25.9593V192.647H35.3953C35.6006 192.647 35.7686 192.713 35.8993 192.843C36.03 192.974 36.0953 193.142 36.0953 193.347V195.195C36.0953 195.401 36.03 195.569 35.8993 195.699C35.7686 195.811 35.6006 195.867 35.3953 195.867H22.8513ZM39.5693 195.867C39.3826 195.867 39.2239 195.802 39.0933 195.671C38.9626 195.541 38.8973 195.382 38.8973 195.195V176.967C38.8973 176.762 38.9533 176.594 39.0653 176.463C39.1959 176.333 39.3639 176.267 39.5693 176.267H46.4013C51.8893 176.267 54.6893 178.806 54.8013 183.883C54.8386 184.966 54.8573 185.694 54.8573 186.067C54.8573 186.422 54.8386 187.141 54.8013 188.223C54.7266 190.837 54.0266 192.769 52.7013 194.019C51.3759 195.251 49.3226 195.867 46.5413 195.867H39.5693ZM46.4013 192.647C47.9693 192.647 49.0986 192.302 49.7893 191.611C50.4799 190.902 50.8439 189.745 50.8813 188.139C50.9186 187.019 50.9373 186.319 50.9373 186.039C50.9373 185.741 50.9186 185.05 50.8813 183.967C50.8439 182.437 50.4519 181.307 49.7053 180.579C48.9773 179.851 47.8293 179.487 46.2613 179.487H42.7893V192.647H46.4013ZM64.2552 195.867C64.0686 195.867 63.9099 195.802 63.7792 195.671C63.6486 195.541 63.5832 195.382 63.5832 195.195V176.939C63.5832 176.734 63.6486 176.575 63.7792 176.463C63.9099 176.333 64.0686 176.267 64.2552 176.267H66.8592C67.0646 176.267 67.2232 176.333 67.3352 176.463C67.4659 176.575 67.5312 176.734 67.5312 176.939V192.535H76.4072C76.6126 192.535 76.7806 192.601 76.9112 192.731C77.0419 192.862 77.1072 193.03 77.1072 193.235V195.195C77.1072 195.401 77.0419 195.569 76.9112 195.699C76.7806 195.811 76.6126 195.867 76.4072 195.867H64.2552ZM79.7974 195.867C79.6107 195.867 79.4521 195.802 79.3214 195.671C79.1907 195.541 79.1254 195.382 79.1254 195.195V176.967C79.1254 176.762 79.1814 176.594 79.2934 176.463C79.4241 176.333 79.5921 176.267 79.7974 176.267H92.1174C92.3227 176.267 92.4907 176.333 92.6214 176.463C92.7521 176.594 92.8174 176.762 92.8174 176.967V178.815C92.8174 179.021 92.7521 179.189 92.6214 179.319C92.4907 179.431 92.3227 179.487 92.1174 179.487H82.9054V184.443H91.5014C91.7067 184.443 91.8747 184.509 92.0054 184.639C92.1361 184.751 92.2014 184.91 92.2014 185.115V186.851C92.2014 187.057 92.1361 187.225 92.0054 187.355C91.8747 187.467 91.7067 187.523 91.5014 187.523H82.9054V192.647H92.3414C92.5467 192.647 92.7147 192.713 92.8454 192.843C92.9761 192.974 93.0414 193.142 93.0414 193.347V195.195C93.0414 195.401 92.9761 195.569 92.8454 195.699C92.7147 195.811 92.5467 195.867 92.3414 195.867H79.7974ZM94.6394 195.867C94.49 195.867 94.35 195.811 94.2194 195.699C94.1074 195.587 94.0514 195.447 94.0514 195.279L94.1074 195.027L100.855 176.967C100.986 176.501 101.313 176.267 101.835 176.267H104.887C105.373 176.267 105.699 176.501 105.867 176.967L112.615 195.027C112.634 195.083 112.643 195.167 112.643 195.279C112.643 195.447 112.587 195.587 112.475 195.699C112.363 195.811 112.233 195.867 112.083 195.867H109.647C109.405 195.867 109.218 195.811 109.087 195.699C108.957 195.587 108.873 195.466 108.835 195.335L107.519 191.919H99.2034L97.8874 195.335C97.738 195.69 97.4674 195.867 97.0754 195.867H94.6394ZM106.539 188.699L103.347 180.047L100.183 188.699H106.539ZM115.229 195.867C115.043 195.867 114.884 195.802 114.753 195.671C114.623 195.541 114.557 195.382 114.557 195.195V176.967C114.557 176.762 114.613 176.594 114.725 176.463C114.856 176.333 115.024 176.267 115.229 176.267H122.481C124.759 176.267 126.541 176.799 127.829 177.863C129.136 178.927 129.789 180.439 129.789 182.399C129.789 183.762 129.453 184.91 128.781 185.843C128.128 186.758 127.213 187.421 126.037 187.831L130.125 194.971C130.181 195.083 130.209 195.186 130.209 195.279C130.209 195.447 130.144 195.587 130.013 195.699C129.901 195.811 129.771 195.867 129.621 195.867H127.073C126.775 195.867 126.541 195.802 126.373 195.671C126.224 195.541 126.084 195.354 125.953 195.111L122.341 188.475H118.449V195.195C118.449 195.382 118.384 195.541 118.253 195.671C118.141 195.802 117.983 195.867 117.777 195.867H115.229ZM122.397 185.311C123.517 185.311 124.357 185.059 124.917 184.555C125.496 184.051 125.785 183.323 125.785 182.371C125.785 181.419 125.496 180.682 124.917 180.159C124.357 179.637 123.517 179.375 122.397 179.375H118.449V185.311H122.397ZM133.369 195.867C133.183 195.867 133.024 195.802 132.893 195.671C132.763 195.541 132.697 195.382 132.697 195.195V176.967C132.697 176.762 132.753 176.594 132.865 176.463C132.996 176.333 133.164 176.267 133.369 176.267H135.525C135.749 176.267 135.917 176.314 136.029 176.407C136.141 176.482 136.244 176.585 136.337 176.715L144.401 189.259V176.967C144.401 176.762 144.457 176.594 144.569 176.463C144.7 176.333 144.868 176.267 145.073 176.267H147.425C147.631 176.267 147.799 176.333 147.929 176.463C148.06 176.594 148.125 176.762 148.125 176.967V195.167C148.125 195.373 148.06 195.541 147.929 195.671C147.799 195.802 147.64 195.867 147.453 195.867H145.269C144.952 195.867 144.681 195.718 144.457 195.419L136.421 183.155V195.195C136.421 195.401 136.356 195.569 136.225 195.699C136.095 195.811 135.927 195.867 135.721 195.867H133.369ZM152.466 195.867C152.279 195.867 152.121 195.802 151.99 195.671C151.859 195.541 151.794 195.382 151.794 195.195V176.939C151.794 176.734 151.859 176.575 151.99 176.463C152.121 176.333 152.279 176.267 152.466 176.267H155.098C155.303 176.267 155.462 176.333 155.574 176.463C155.705 176.575 155.77 176.734 155.77 176.939V195.195C155.77 195.382 155.705 195.541 155.574 195.671C155.462 195.802 155.303 195.867 155.098 195.867H152.466ZM164.445 195.867C164.259 195.867 164.1 195.802 163.969 195.671C163.839 195.541 163.773 195.382 163.773 195.195V179.711H158.593C158.407 179.711 158.248 179.646 158.117 179.515C157.987 179.385 157.921 179.226 157.921 179.039V176.967C157.921 176.762 157.977 176.594 158.089 176.463C158.22 176.333 158.388 176.267 158.593 176.267H172.873C173.079 176.267 173.247 176.333 173.377 176.463C173.508 176.594 173.573 176.762 173.573 176.967V179.039C173.573 179.226 173.508 179.385 173.377 179.515C173.247 179.646 173.079 179.711 172.873 179.711H167.721V195.195C167.721 195.382 167.656 195.541 167.525 195.671C167.395 195.802 167.227 195.867 167.021 195.867H164.445ZM181.538 195.867C181.352 195.867 181.193 195.802 181.062 195.671C180.932 195.541 180.866 195.382 180.866 195.195V188.867L174.258 177.163C174.202 177.07 174.174 176.967 174.174 176.855C174.174 176.687 174.23 176.547 174.342 176.435C174.454 176.323 174.585 176.267 174.734 176.267H177.226C177.432 176.267 177.6 176.323 177.73 176.435C177.88 176.547 177.992 176.669 178.066 176.799L182.826 184.947L187.558 176.799C187.782 176.445 188.072 176.267 188.426 176.267H190.89C191.058 176.267 191.198 176.323 191.31 176.435C191.422 176.547 191.478 176.687 191.478 176.855C191.478 176.967 191.45 177.07 191.394 177.163L184.786 188.867V195.195C184.786 195.382 184.721 195.541 184.59 195.671C184.46 195.802 184.292 195.867 184.086 195.867H181.538Z" fill="#8ABBD5"/>
<mask id="mask0" mask-type="alpha" maskUnits="userSpaceOnUse" x="18" y="0" width="153" height="153">
<path d="M18.1323 77.0746L39.2673 55.9396L104.144 86.9062L104.352 86.6981L74.28 20.9269L95.207 -5.28693e-05L170.867 75.6604L158.49 88.0381L100.102 29.6503L99.8938 29.8583L137.687 108.841L126.973 119.554L47.9907 81.7615L47.7827 81.9695L106.17 140.357L93.7927 152.735L18.1323 77.0746Z" fill="#8ABBD5"/>
</mask>
<g mask="url(#mask0)">
<path d="M143.29 104.652L127.734 88.0954L64.8014 89.8025L110.056 136.472L93.7927 152.735L18.1323 77.0746L94.8534 0.353501L171.221 76.721L143.29 104.652Z" fill="#8ABBD5"/>
</g>
<rect x="93.793" y="130.108" width="53.9566" height="16" transform="rotate(-45 93.793 130.108)" fill="#8ABBD5"/>
</g>
<defs>
<clipPath id="clip0">
<rect width="192" height="196" fill="white"/>
</clipPath>
</defs>
</svg>
