<?xml version="1.0" standalone="no"?>
<!DOCTYPE svg PUBLIC "-//W3C//DTD SVG 1.1//EN" "http://www.w3.org/Graphics/SVG/1.1/DTD/svg11.dtd">
<svg xmlns="http://www.w3.org/2000/svg">
<defs >
<font id="Literata" horiz-adv-x="639" ><font-face
    font-family="Literata"
    units-per-em="1000"
    panose-1="0 0 0 0 0 0 0 0 0 0"
    ascent="1177"
    descent="-308"
    alphabetic="0" />
<glyph unicode=" " horiz-adv-x="200" />
<glyph unicode="!" horiz-adv-x="337" d="M124 211V279Q124 327 119 369T107 448T93 518T80 580T75 634Q75 663 88 680T124 706T172 715Q215 715 240 696T266 636Q266 605 258 568T240 486T221 390T213 278V211H124ZM169 -14Q128 -14 104 8T79 66Q79 103 103 125T169
147Q211 147 234 125T258 66Q258 31 234 9T169 -14Z" />
<glyph unicode="&quot;" horiz-adv-x="438" d="M100 525L68 687Q66 698 64 710T62 733Q62 759 80 776T131 793Q156 793 175 780T195 742Q195 736 194 728T190 709L149 525H100ZM281 525L249 687Q246 698 245 710T243 733Q243 759 260 776T312 793Q336 793 355
780T375 742Q375 736 375 728T371 709L330 525H281Z" />
<glyph unicode="#" horiz-adv-x="691" d="M140 -3L159 130L34 127L52 212H175L193 344L67 341L82 426L206 428L222 553L319 551L298 426L432 428L449 553L545 554L527 429L657 432L641 346L511 347L494 215L630 217L615 132L482 130L464 -3L367 -1L388 132L256
130L237 -3H140ZM268 212L402 215L419 347L284 344L268 212Z" />
<glyph unicode="$" horiz-adv-x="595" d="M268 -90V-10Q230 -3 196 12T137 48L124 -6H55L39 213L116 225Q131 186 152 156T203 107T268 82V281Q258 284 250 287T232 293Q184 311 150 330T95 374T64 429T54 501Q54 534 66 569T103 636T169 688T268 714V800H335V712Q369
708 397 696T450 665L463 715H525L547 500L470 485Q455 530 434 558T388 603T335 623V433Q338 432 343 431T352 428Q400 413 440 395T508 353T552 294T568 210Q568 158 549 118T497 49T422 5T335 -14V-90H268ZM335 82Q361 86 378 96T404 124T413 163Q413 185 405
201T380 232T335 257V82ZM268 460V621Q237 616 219 596T201 544Q201 526 208 511T229 484T268 460Z" />
<glyph unicode="%" horiz-adv-x="906" d="M206 -14L572 597H701L337 -14H206ZM208 274Q155 274 115 292T52 344T29 427Q29 489 54 526T121 579T213 595Q262 595 302 580T365 531T389 443Q389 386 365 348T301 292T208 274ZM211 341Q233 341 244 362T256 436Q256
488 243 508T206 529Q186 529 173 510T159 438Q159 387 172 364T211 341ZM696 -20Q643 -20 603 -2T540 50T517 133Q517 196 542 233T609 286T701 302Q750 302 790 287T853 238T877 150Q877 92 853 55T789 -1T696 -20ZM699 47Q721 47 732 68T744 142Q744 177 738
197T721 227T694 236Q674 236 661 217T647 145Q647 94 660 71T699 47Z" />
<glyph unicode="&amp;" horiz-adv-x="836" d="M279 -14Q212 -14 158 7T72 72T40 181Q40 216 51 245T82 298T131 340T197 373Q173 398 154 424T124 478T113 540Q113 584 130 617T177 672T246 704T325 715Q409 715 457 674T505 567Q505 528 488 496T441 439T374
397L497 267Q515 331 538 375T588 446T643 485T700 497Q745 497 773 473T801 410Q801 390 794 371T773 340T737 328Q717 328 705 337T683 365T663 409Q643 399 623 375T585 311T555 208Q593 170 618 149T664 120T705 111Q722 111 741 119T784 144L809 90Q786 62
763 42T713 11T656 -1Q629 -1 602 7T548 32T490 77Q471 52 442 32T372 -1T279 -14ZM318 74Q359 74 387 89T431 130L243 323Q227 311 214 295T194 258T186 208Q186 165 204 135T252 90T318 74ZM328 442Q357 463 374 485T398 531T406 574Q406 612 383 630T326 649Q288
649 268 628T248 575Q248 550 258 528T287 486T328 442Z" />
<glyph unicode="&apos;" horiz-adv-x="257" d="M100 525L68 687Q66 698 64 710T62 733Q62 759 80 776T131 793Q156 793 175 780T195 742Q195 736 194 728T190 709L149 525H100Z" />
<glyph unicode="(" horiz-adv-x="358" d="M267 -214Q219 -162 178 -103T108 23T62 165T45 323Q45 404 63 476T114 611T186 729T270 827L329 792Q291 729 264 651T223 488T208 321Q208 231 222 144T264 -24T327 -179L267 -214Z" />
<glyph unicode=")" horiz-adv-x="358" d="M80 -214L20 -180Q57 -110 84 -30T126 137T142 310Q142 397 128 481T88 645T23 792L82 827Q126 783 166 729T238 611T286 476T304 323Q304 240 287 165T240 22T169 -104T80 -214Z" />
<glyph unicode="*" horiz-adv-x="450" d="M218 393Q188 393 178 409T175 453L200 552L133 487Q114 465 90 465T49 495Q34 521 43 538T79 562L183 594L90 623Q59 631 49 651T54 700Q69 726 89 727T128 708L201 635L179 727Q171 758 184 777T230 797Q258 797 269
782T273 738L246 634L317 700Q339 721 362 721T402 691Q417 666 409 650T371 625L266 593L360 564Q389 555 400 535T395 485Q381 460 362 459T322 479L247 550L269 463Q276 434 264 414T218 393Z" />
<glyph unicode="+" horiz-adv-x="582" d="M232 83V254H79V361H232V519H343V361H503V254H343V83H232Z" />
<glyph unicode="," horiz-adv-x="326" d="M112 -174L73 -123Q100 -103 118 -84T147 -44T160 -3H146Q126 -3 108 4T78 27T66 70Q66 109 91 132T159 156Q209 156 235 127T261 51Q261 14 245 -28T196 -108T112 -174Z" />
<glyph unicode="-" horiz-adv-x="339" d="M37 239V349H303V239H37Z" />
<glyph unicode="." horiz-adv-x="329" d="M164 -15Q120 -15 94 8T68 72Q68 110 94 134T164 159Q210 159 235 135T261 72Q261 33 235 9T164 -15Z" />
<glyph unicode="/" horiz-adv-x="488" d="M7 -110L345 802H462L125 -110H7Z" />
<glyph unicode="0" horiz-adv-x="616" d="M308 -13Q213 -13 152 33T61 159T32 342Q32 446 56 517T120 632T210 695T314 715Q393 715 453 678T549 563T584 365Q584 241 550 157T454 30T308 -13ZM315 74Q341 74 360 89T391 136T410 222T416 352Q416 429 409 482T389
567T355 614T306 629Q282 629 262 617T229 574T208 492T201 360Q201 288 208 234T229 145T264 92T315 74Z" />
<glyph unicode="1" horiz-adv-x="415" d="M29 0V71L104 83Q121 86 127 96T133 129V550Q133 574 128 584T95 598L23 606L32 677L279 712L300 697V126Q300 103 306 94T330 82L397 71V0H29Z" />
<glyph unicode="2" horiz-adv-x="538" d="M35 0L25 85Q99 163 151 221T236 322T289 400T317 465T325 530Q325 578 302 604T235 631Q209 631 188 624T152 605Q162 590 168 579T177 559T180 540Q180 515 160 496T102 477Q59 477 39 500T18 560Q18 601 49 636T135
693T263 715Q336 715 388 692T468 626T496 525Q496 492 488 461T460 397T405 324T314 231T181 109H313Q339 109 355 112T383 127T403 160T423 218H510L490 0H35Z" />
<glyph unicode="3" horiz-adv-x="558" d="M259 -14Q208 -14 169 -3T100 26T50 62T18 97L74 173Q96 153 120 137T174 110T239 100Q278 100 303 114T339 152T351 206Q351 265 308 289T174 310L182 393Q240 399 275 417T326 464T343 532Q343 581 318 607T249 633Q226
633 204 626T167 605Q182 582 188 567T194 540Q194 528 186 514T161 491T117 481Q90 481 73 492T47 522T39 561Q39 600 66 635T147 693T276 715Q345 715 394 696T471 639T499 545Q499 503 482 470T430 413T348 376V372Q400 364 438 344T498 288T520 197Q520 146
500 107T445 41T362 0T259 -14Z" />
<glyph unicode="4" horiz-adv-x="603" d="M216 0V67L286 77Q309 81 315 92T321 123V165H22L10 237L321 693L467 711L488 697V259H585V165H488V116Q488 97 495 88T523 76L570 69V0H216ZM120 259H321V547L319 551L120 259Z" />
<glyph unicode="5" horiz-adv-x="543" d="M249 -14Q203 -14 160 -3T80 33T13 97L69 172Q107 135 148 118T233 100Q269 100 294 115T332 159T346 231Q346 288 316 318T230 349Q197 349 167 340T106 313L57 363L91 701H484V670L458 581H179L162 420Q190 436 224
444T296 452Q363 452 412 426T487 352T514 239Q514 178 497 131T445 51T362 3T249 -14Z" />
<glyph unicode="6" horiz-adv-x="584" d="M293 -14Q196 -14 139 26T57 138T32 300Q32 376 48 449T103 583T204 679T359 715Q406 715 451 702T525 661T554 593Q554 572 546 553T519 522T471 509Q446 509 430 517T407 537T399 560Q399 568 401 576T409 595T424 620Q412
628 395 632T355 636Q326 636 303 625T261 591T230 537T210 468T199 387Q222 413 260 432T352 452Q412 452 457 428T527 356T553 239Q553 157 520 100T429 15T293 -14ZM298 71Q329 71 350 86T383 135T395 223Q395 274 384 303T351 346T301 360Q274 360 250 348T212
309T197 239Q197 188 206 150T238 92T298 71Z" />
<glyph unicode="7" horiz-adv-x="543" d="M185 -13L164 -1Q163 69 172 139T209 284T285 433T411 587H213Q187 587 171 585T145 572T127 541T110 483H20L37 701H526L537 613Q483 552 443 489T376 354T339 196T332 2L185 -13Z" />
<glyph unicode="8" horiz-adv-x="589" d="M277 -14Q201 -14 143 6T53 66T20 169Q20 207 35 241T83 305T174 356Q130 380 103 405T64 460T51 531Q51 575 76 617T157 687T300 715Q378 715 429 695T506 640T532 560Q532 522 518 492T477 439T414 397Q472 370 504
339T550 274T564 201Q564 147 542 107T480 40T388 0T277 -14ZM291 76Q325 76 349 88T386 123T400 181Q400 206 391 225T363 259T316 289T249 316Q206 288 188 254T170 185Q170 149 186 125T229 88T291 76ZM333 431Q359 456 374 486T389 547Q389 577 376 595T341
623T293 633Q267 633 246 624T213 598T201 555Q201 532 211 513T250 474T333 431Z" />
<glyph unicode="9" horiz-adv-x="576" d="M259 -14Q193 -14 136 7T33 71L81 154Q116 127 155 113T240 98Q276 98 300 112T341 154T367 219T379 308Q354 278 318 262T239 245Q172 245 124 270T50 344T24 461Q24 547 58 603T152 687T285 715Q356 715 405 692T485
626T530 527T544 403Q544 193 475 90T259 -14ZM277 338Q297 338 315 345T347 369T370 412T379 478Q379 522 370 557T339 612T282 633Q260 633 242 625T211 599T191 553T184 485Q184 429 196 397T228 351T277 338Z" />
<glyph unicode=":" horiz-adv-x="329" d="M164 -15Q120 -15 94 8T68 72Q68 110 94 134T164 159Q210 159 235 135T261 72Q261 33 235 9T164 -15ZM164 352Q120 352 94 376T68 439Q68 478 94 502T164 526Q210 526 235 503T261 439Q261 400 235 376T164 352Z" />
<glyph unicode=";" horiz-adv-x="326" d="M112 -174L73 -123Q100 -103 118 -84T147 -44T160 -3H146Q126 -3 108 4T78 27T66 70Q66 109 91 132T159 156Q209 156 235 127T261 51Q261 14 245 -28T196 -108T112 -174ZM161 352Q117 352 91 376T64 439Q64 478 90 502T161
526Q207 526 232 503T258 439Q258 400 232 376T161 352Z" />
<glyph unicode="&lt;" horiz-adv-x="582" d="M434 37L75 254V314L434 532L484 447L211 285L484 124L434 37Z" />
<glyph unicode="=" horiz-adv-x="582" d="M83 346V453H499V346H83ZM83 154V260H499V154H83Z" />
<glyph unicode="&gt;" horiz-adv-x="582" d="M148 37L98 124L371 285L98 447L148 532L507 314V254L148 37Z" />
<glyph unicode="?" horiz-adv-x="559" d="M198 212V328Q198 354 204 374T225 413T270 456Q308 488 325 510T342 562Q342 598 317 619T250 640Q220 640 198 632T161 611Q173 593 182 576T191 543Q191 523 173 507T121 490Q84 490 65 510T45 562Q45 603 74 638T156
694T279 715Q350 715 399 695T475 639T501 552Q501 515 488 485T447 426T379 368Q352 345 336 330T312 303T302 282T299 262V212H198ZM249 -14Q208 -14 184 8T159 66Q159 103 183 125T249 147Q291 147 314 125T338 66Q338 31 314 9T249 -14Z" />
<glyph unicode="@" horiz-adv-x="944" d="M403 -200Q335 -200 273 -180T162 -116T85 -5T57 157Q57 249 85 328T170 466T309 559T502 593Q593 593 665 572T787 509T865 405T892 260Q892 166 862 104T779 12T663 -19Q624 -19 602 -8T571 27T566 85L577 204H571L552
135Q541 93 525 64T488 16T446 -10T400 -19Q357 -19 329 -5T284 32T260 84T253 143Q253 237 283 296T362 383T467 411Q501 411 534 401T598 372L667 398L684 392L659 105Q657 77 661 63T690 49Q716 49 741 73T782 141T798 246Q798 309 781 359T727 444T633 497T494
516Q393 516 317 476T197 359T153 172Q153 90 175 34T236 -55T322 -104T423 -119Q494 -119 542 -101T629 -55L669 -110Q626 -149 558 -174T403 -200ZM423 55Q442 55 457 68T487 110T517 188L564 329Q548 337 530 341T493 346Q467 346 446 330T409 286T385 222T376
146Q376 119 380 99T394 67T423 55Z" />
<glyph unicode="A" horiz-adv-x="755" d="M7 0V73L47 81Q66 85 76 96T96 135L300 701H461L665 131Q676 103 684 93T712 79L747 72V0H424V73L471 79Q489 82 493 94T490 130L463 212H226L199 134Q192 113 194 98T224 78L268 71V0H7ZM253 293H439L351 571H347L253 293Z" />
<glyph unicode="B" horiz-adv-x="691" d="M49 0V71L92 79Q111 82 117 91T123 130V576Q123 601 117 610T90 623L49 630V701H352Q448 701 506 682T591 626T618 538Q618 495 599 463T548 409T475 377V372Q561 362 609 321T658 203Q658 140 625 94T528 24T368 0H49ZM347
84Q392 84 422 98T468 141T484 209Q484 250 468 275T421 311T347 323Q312 323 290 319V89Q302 87 316 86T347 84ZM334 402Q371 402 396 415T435 455T449 518Q449 553 438 575T402 608T335 620H290V404Q299 403 309 403T334 402Z" />
<glyph unicode="C" horiz-adv-x="709" d="M382 -14Q279 -14 203 29T84 154T42 349Q42 431 66 498T134 614T241 689T381 715Q431 715 470 701T541 660L552 716H617L656 471L575 455Q555 515 529 551T469 603T393 619Q334 619 295 590T237 504T217 366Q217 295 233
245T277 162T342 114T420 99Q463 99 498 110T562 143T611 189L667 125Q649 99 622 75T559 30T479 -2T382 -14Z" />
<glyph unicode="D" horiz-adv-x="778" d="M49 0V71L92 79Q111 82 117 91T123 130V576Q123 601 117 610T90 623L49 630V701H370Q430 701 484 690T585 656T664 593T717 500T736 371Q736 281 710 212T631 96T500 24T319 0H49ZM348 91Q405 91 445 107T510 157T548
242T560 364Q560 448 537 502T468 583T358 610H290V95Q302 93 317 92T348 91Z" />
<glyph unicode="E" horiz-adv-x="663" d="M49 0V71L92 79Q111 82 117 91T123 130V576Q123 602 117 611T90 623L49 630V701H575L610 516L521 501Q510 536 500 559T475 595T439 613T386 619H290V397H347Q372 397 384 402T404 423T418 471L485 477V244L418 234Q413
267 407 284T386 306T346 312H290V83H404Q437 83 458 89T494 110T517 149T537 213H627L601 0H49Z" />
<glyph unicode="F" horiz-adv-x="638" d="M49 0V71L92 79Q111 82 117 91T123 130V576Q123 601 117 610T90 623L49 630V701H577L609 502L524 487Q511 527 500 553T473 593T437 613T382 619H290V377H346Q374 377 387 382T406 403T420 452L488 457V214L419 203Q414
242 407 261T386 286T344 292H290V131Q290 104 296 93T329 80L399 72V0H49Z" />
<glyph unicode="G" horiz-adv-x="768" d="M362 -14Q260 -14 189 31T80 157T42 343Q42 427 66 495T136 613T245 688T386 715Q441 715 481 701T552 660L564 716H629L671 471L589 455Q570 514 544 550T482 602T399 619Q355 619 321 602T264 553T229 473T217 364Q217
297 231 247T269 164T327 114T400 97Q426 97 448 102T489 116T521 138V221Q521 244 516 256T488 271L440 278V350H744V278L705 271Q685 268 680 257T674 219V-2H587L563 57Q546 43 519 27T452 -2T362 -14Z" />
<glyph unicode="H" horiz-adv-x="841" d="M49 0V71L92 79Q111 82 117 91T123 130V575Q123 601 117 610T90 623L49 630V701H363V630L320 622Q302 619 296 609T290 571V405H552V575Q552 600 546 609T519 622L479 630V701H792V630L750 623Q731 620 725 610T719 572V126Q719
100 725 92T752 79L792 71V0H479V71L521 79Q539 82 545 91T552 130V310H290V126Q290 99 296 91T322 79L363 71V0H49Z" />
<glyph unicode="I" horiz-adv-x="417" d="M49 0V71L94 79Q114 83 119 93T125 129V575Q125 601 119 610T91 623L49 630V701H368V630L322 622Q305 619 299 609T292 572V126Q292 100 298 92T324 79L368 71V0H49Z" />
<glyph unicode="J" horiz-adv-x="576" d="M232 -14Q174 -14 127 4T51 54T22 130Q22 164 34 187T67 222T115 235Q149 235 169 220T190 181Q190 162 182 143T156 96Q168 86 186 80T224 74Q254 74 272 89T299 132T308 201V570Q308 596 302 606T275 619L212 627V701H551V630L505
622Q488 619 482 610T475 572V238Q475 114 412 50T232 -14Z" />
<glyph unicode="K" horiz-adv-x="784" d="M644 -15Q612 -15 586 -8T539 12T502 44T470 90L345 298L292 243V128Q292 102 299 92T324 79L368 71V0H49V71L94 79Q113 82 119 91T125 130V575Q125 602 119 611T92 623L49 630V701H368V630L322 622Q305 619 299 610T292
571V362L509 578Q519 589 521 598T518 614T499 623L455 629L465 701H722V627L683 619Q671 617 662 613T642 599T616 574L460 413L616 165Q635 135 650 117T681 90T720 82Q731 82 741 83T764 89L778 29Q757 11 723 -2T644 -15Z" />
<glyph unicode="L" horiz-adv-x="648" d="M49 0V71L93 79Q111 82 117 91T123 130V576Q123 601 116 611T90 623L49 630V701H378V630L324 622Q304 619 297 610T290 576V86H376Q406 86 427 93T463 118T491 165T517 241H609L582 0H49Z" />
<glyph unicode="M" horiz-adv-x="987" d="M42 0V71L84 78Q104 82 109 91T116 123L144 580Q145 603 139 611T112 623L69 630V701H339L493 294L497 299L662 701H916V630L869 623Q853 621 846 614T841 579L871 126Q873 102 878 93T904 79L947 71V0H629V71L683 79Q699
82 705 90T709 121L682 523L680 527L512 113H411L244 527L242 523L219 126Q218 106 221 95T248 79L297 71V0H42Z" />
<glyph unicode="N" horiz-adv-x="837" d="M49 0V71L92 79Q110 82 116 92T123 130V575Q123 601 117 610T90 623L49 630V701H305L602 205L604 209V575Q604 600 598 609T571 622L531 630V701H790V630L748 623Q730 620 724 610T717 572V0H544L238 497L236 493V126Q236
99 242 91T268 79L309 71V0H49Z" />
<glyph unicode="O" horiz-adv-x="777" d="M383 -14Q272 -14 196 31T81 156T42 338Q42 458 86 542T211 670T400 715Q501 715 576 674T692 556T734 367Q734 286 711 217T644 95T534 15T383 -14ZM396 84Q435 84 465 98T516 144T546 227T557 350Q557 417 546 467T512
551T458 602T384 619Q344 619 313 604T261 557T229 476T218 358Q218 291 229 240T263 154T319 102T396 84Z" />
<glyph unicode="P" horiz-adv-x="653" d="M49 0V71L92 79Q111 82 117 91T123 130V576Q123 600 117 610T90 623L49 630V701H351Q400 701 443 695T520 674T579 635T617 577T631 495Q631 443 615 404T571 338T511 294T441 269T373 261Q347 261 324 262T290 266V131Q290
104 296 93T329 79L399 71V0H49ZM335 350Q397 350 428 385T460 492Q460 536 446 564T404 605T333 619H290V353Q298 352 309 351T335 350Z" />
<glyph unicode="Q" horiz-adv-x="787" d="M710 -192Q664 -192 626 -174T552 -114T479 -4Q458 -9 435 -11T388 -14Q277 -14 200 31T82 156T42 338Q42 458 88 542T215 670T405 715Q506 715 582 674T701 556T744 367Q744 264 707 180T597 46Q629 -1 654 -27T703 -63T750
-74Q784 -74 811 -65T871 -34L904 -81Q875 -117 845 -142T781 -179T710 -192ZM398 80Q409 80 418 80T432 83Q416 115 402 138T374 176T347 198T317 205Q296 205 281 198T251 176Q265 146 286 125T336 92T398 80ZM524 156Q547 185 559 235T571 350Q571 417 559 467T523
551T466 602T390 619Q350 619 318 604T263 557T229 476T217 358Q217 322 221 295T234 241Q257 263 284 274T345 286Q378 286 408 271T466 227T524 156Z" />
<glyph unicode="R" horiz-adv-x="744" d="M601 -14Q555 -14 524 1T472 45T437 116L400 235Q391 258 383 275T360 303T323 313Q314 313 306 313T291 311V130Q291 107 297 95T327 78L374 71V0H49V71L92 79Q111 82 117 91T123 130V576Q123 600 117 610T90 623L49
630V701H353Q414 701 465 692T554 661T612 607T633 524Q633 488 619 461T583 413T533 378T480 356T434 344V340Q490 331 522 310T570 242L596 175Q609 144 618 124T641 93T675 83Q685 83 695 85T718 90L732 30Q710 11 677 -1T601 -14ZM331 384Q372 384 399 398T441
441T456 509Q456 549 441 573T398 608T333 619H292V385Q304 384 314 384T331 384Z" />
<glyph unicode="S" horiz-adv-x="613" d="M325 -14Q271 -14 223 3T141 48L127 -6H59L43 213L120 225Q132 191 150 164T191 118T243 89T304 79Q340 79 363 89T398 118T410 162Q410 192 396 212T349 249T265 281Q220 295 182 312T117 354T74 415T58 501Q58 529 66
558T92 616T138 666T206 702T299 715Q348 715 385 702T453 665L466 715H529L551 500L474 485Q456 539 430 569T372 613T308 626Q266 626 239 605T212 544Q212 515 227 496T274 462T352 432Q401 417 441 399T511 355T556 295T572 210Q572 156 552 115T496 44T417
1T325 -14Z" />
<glyph unicode="T" horiz-adv-x="746" d="M187 0V71L257 81Q277 83 283 96T290 132V618H254Q224 618 204 612T168 589T141 544T117 469L24 488L57 701H690L722 487L629 469Q617 515 605 544T578 590T543 612T495 618H457V130Q457 108 462 96T491 81L560 71V0H187Z" />
<glyph unicode="U" horiz-adv-x="785" d="M396 -14Q316 -14 261 6T174 62T127 148T112 258V574Q112 600 106 610T78 623L37 630V701H352V630L308 622Q290 619 284 609T278 572V258Q278 203 293 166T339 111T424 92Q480 92 513 112T561 169T576 260V574Q576 600
570 610T542 623L502 630V701H750V630L708 622Q689 619 683 609T676 570V271Q676 175 645 112T551 18T396 -14Z" />
<glyph unicode="V" horiz-adv-x="757" d="M295 0L95 570Q85 599 77 608T50 621L11 629V701H343V628L291 621Q273 619 268 610T271 571L410 144H415L557 565Q566 592 561 604T534 619L485 628L489 701H747V629L702 621Q685 618 677 609T657 566L460 0H295Z" />
<glyph unicode="W" horiz-adv-x="1108" d="M233 0L97 572Q91 598 83 607T51 621L11 629V701H340V629L293 622Q274 618 269 607T269 570L360 154H364L500 701H663L814 150H818L906 571Q911 597 907 607T884 621L835 631V701H1098V629L1049 621Q1037 620 1028 616T1013
602T1002 571L870 0H686L549 506H546L419 0H233Z" />
<glyph unicode="X" horiz-adv-x="756" d="M11 0V72L44 79Q68 85 82 90T107 107T136 137L300 334L120 572Q104 592 88 603T47 620L10 628L24 701H344V628L306 623Q289 621 287 612T299 583L402 444L508 584Q519 599 519 607T497 620L461 628L475 701H724V627L688
622Q673 620 662 616T640 604T618 580L456 375L642 128Q658 106 674 94T715 78L746 73V0H411V72L452 77Q472 79 475 90T459 126L355 265L242 119Q229 102 229 92T249 79L298 72V0H11Z" />
<glyph unicode="Y" horiz-adv-x="745" d="M200 0V71L259 79Q278 81 284 91T290 130V267L110 569Q97 591 86 604T50 621L10 628V701H344V629L294 622Q275 620 271 608T281 572L404 370H409L524 566Q538 590 535 603T506 621L459 630V701H735V629L685 620Q668 617
657 606T628 565L454 269V126Q454 101 460 91T486 79L545 71V0H200Z" />
<glyph unicode="Z" horiz-adv-x="686" d="M46 0V77L440 619H276Q248 619 229 613T197 589T172 543T146 468L54 462L66 701H631V623L241 84H394Q426 84 448 90T488 113T520 161T552 241H641L621 0H46Z" />
<glyph unicode="[" horiz-adv-x="353" d="M89 -212V812H323L325 741L261 735Q244 734 238 725T231 693V-93Q231 -116 237 -124T261 -135L325 -141L323 -212H89Z" />
<glyph unicode="\" horiz-adv-x="490" d="M344 -110L7 802H124L461 -110H344Z" />
<glyph unicode="]" horiz-adv-x="353" d="M31 -212L29 -141L93 -135Q110 -133 116 -125T123 -93V693Q123 716 117 725T93 735L29 741L31 812H264V-212H31Z" />
<glyph unicode="^" horiz-adv-x="582" d="M125 330L31 389L248 713H333L551 389L456 330L289 568L125 330Z" />
<glyph unicode="_" horiz-adv-x="470" d="M0 -119V-34H470V-119H0Z" />
<glyph unicode="`" horiz-adv-x="500" d="M299 575L151 674Q132 687 123 702T113 734Q113 747 119 762T140 789T175 801Q190 801 201 795T225 769L334 611L299 575Z" />
<glyph unicode="a" horiz-adv-x="578" d="M190 -14Q118 -14 78 23T37 122Q37 182 67 216T162 265T327 285V353Q327 390 319 413T293 448T242 460Q220 460 198 454T161 437Q171 422 176 410T185 390T188 376Q188 354 169 339T113 324Q79 324 62 340T45 384Q45 424
73 456T152 507T269 526Q344 526 391 506T462 443T486 335V125Q486 102 495 91T524 80Q534 80 544 82T564 87L577 31Q557 13 524 0T456 -14Q408 -14 380 9T344 69Q330 46 309 27T259 -3T190 -14ZM252 73Q275 73 291 82T317 109T327 150V220Q282 220 252 212T208
185T194 139Q194 109 208 91T252 73Z" />
<glyph unicode="b" horiz-adv-x="648" d="M163 -7L87 -3V616Q87 649 81 661T47 677L12 682L18 758L231 767L246 756V445L248 441Q267 469 291 488T346 516T410 526Q473 526 518 497T587 413T612 277Q612 187 584 122T500 21T364 -14Q318 -14 281 -1T212 35L163
-7ZM338 79Q374 79 397 98T432 158T444 261Q444 319 433 356T401 410T346 428Q314 428 292 414T258 373T246 308V112Q263 98 287 89T338 79Z" />
<glyph unicode="c" horiz-adv-x="543" d="M291 -14Q211 -14 154 18T67 108T37 246Q37 330 69 393T163 491T311 526Q374 526 419 507T489 457T514 388Q514 366 506 348T479 318T431 306Q397 306 378 321T358 362Q358 374 363 388T383 428Q367 438 350 442T309 446Q276
446 252 427T214 370T200 278Q200 192 235 147T338 102Q375 102 408 113T476 149L521 90Q484 45 427 16T291 -14Z" />
<glyph unicode="d" horiz-adv-x="658" d="M251 -14Q181 -14 134 16T62 104T37 241Q37 328 67 392T153 491T288 526Q323 526 352 518T404 497V625Q404 655 397 666T363 681L324 687L331 760L549 767L563 752V120Q563 97 569 89T596 77L634 69V-1L430 -8L418 72H414Q398
47 376 28T323 -2T251 -14ZM305 83Q336 83 358 98T392 141T404 207V401Q384 416 361 423T310 431Q274 431 251 412T216 353T204 252Q204 196 215 158T249 102T305 83Z" />
<glyph unicode="e" horiz-adv-x="565" d="M298 -14Q214 -14 156 18T67 108T37 244Q37 334 72 397T169 493T311 526Q377 526 425 504T500 438T527 334Q527 310 525 285T516 236H202Q205 192 222 162T268 116T337 101Q382 101 418 115T487 155L535 100Q496 49 435
18T298 -14ZM202 313H372Q374 325 374 337T375 361Q375 404 357 426T302 449Q271 449 250 433T217 386T202 313Z" />
<glyph unicode="f" horiz-adv-x="427" d="M36 0V70L79 77Q98 80 103 90T109 128V425H32V496L110 509V545Q110 595 122 638T159 714T226 764T327 782Q384 782 423 767T482 725T502 662Q502 629 484 609T428 588Q396 588 378 601T359 637Q359 650 364 663T383 701Q374
706 361 709T335 713Q311 713 296 701T275 666T268 604V512H408V425H268V123Q268 99 275 90T305 78L373 70V0H36Z" />
<glyph unicode="g" horiz-adv-x="605" d="M264 -230Q200 -230 153 -222T76 -197T30 -157T15 -101Q15 -69 29 -48T69 -13T124 13V16Q88 27 71 50T53 99Q53 125 67 147T113 196V199Q77 220 57 254T37 338Q37 401 69 443T156 506T279 527Q298 527 321 524T368 515T414
498Q440 553 469 584T539 615Q558 615 574 608T601 587T612 549Q612 522 595 501T549 480Q535 480 524 488T503 510L492 528Q482 516 474 502T459 470Q483 446 500 416T517 342Q517 290 489 249T407 184T279 160Q253 160 230 163T189 172Q179 161 174 152T168 132Q168
118 176 110T200 98T237 95H400Q492 95 536 62T581 -34Q581 -62 572 -89T543 -142T486 -187T395 -218T264 -230ZM280 -149Q322 -149 351 -139T396 -110T412 -68Q412 -44 395 -32T344 -20H198Q183 -33 175 -49T166 -85Q166 -118 194 -133T280 -149ZM278 244Q316
244 336 269T356 342Q356 396 335 421T275 447Q234 447 216 419T198 344Q198 299 219 272T278 244Z" />
<glyph unicode="h" horiz-adv-x="689" d="M38 0V69L77 77Q92 80 98 89T104 123V616Q104 650 97 661T65 677L29 682L36 758L248 767L263 756V441L265 436Q288 478 330 502T430 526Q488 526 525 505T580 445T598 355V115Q598 95 603 87T629 75L665 69V0H381V68L411
74Q427 77 433 85T439 117V314Q439 352 432 374T408 407T364 418Q335 418 312 406T276 368T263 300V120Q263 98 267 88T288 75L323 68V0H38Z" />
<glyph unicode="i" horiz-adv-x="364" d="M34 0V70L80 78Q98 81 103 90T108 127V363Q108 398 102 410T73 426L34 432L41 507L252 518L267 510V125Q267 104 271 93T296 78L341 69V0H34ZM173 603Q128 603 102 625T76 688Q76 726 101 749T173 772Q221 772 246 750T271
688Q271 649 245 626T173 603Z" />
<glyph unicode="j" horiz-adv-x="337" d="M69 -230L20 -165Q42 -145 57 -124T82 -79T95 -25T100 40V365Q100 399 94 410T65 426L26 432L33 507L244 518L259 510V95Q259 27 246 -24T208 -112T148 -177T69 -230ZM165 603Q120 603 94 625T67 688Q67 726 92 749T165
772Q213 772 238 750T263 688Q263 649 237 626T165 603Z" />
<glyph unicode="k" horiz-adv-x="671" d="M551 -11Q523 -11 500 -4T455 20T410 70L273 257V273L413 400Q427 412 426 423T410 436L368 443L380 512H632V441L595 434Q578 431 564 423T531 399L419 299L546 137Q566 110 582 97T622 83Q629 83 637 85T659 90L673
34Q652 14 619 2T551 -11ZM32 0V70L76 77Q93 80 98 89T104 125V616Q104 650 98 661T66 677L30 682L36 758L249 767L263 756V124Q263 101 268 91T292 77L321 70V0H32Z" />
<glyph unicode="l" horiz-adv-x="361" d="M31 0V70L76 78Q94 81 99 90T105 127V616Q105 650 98 661T65 676L30 682L36 758L249 767L264 755V125Q264 101 269 91T294 77L338 69V0H31Z" />
<glyph unicode="m" horiz-adv-x="997" d="M43 0V69L83 77Q99 80 104 89T109 125V368Q109 401 103 412T75 427L35 433L43 507L231 520L246 511L253 420H257Q274 453 299 476T356 513T427 526Q488 526 525 499T577 424Q601 471 645 498T745 526Q800 526 835 505T888
445T905 355V116Q905 95 910 87T935 75L972 69V0H696V68L718 73Q736 76 741 85T746 116V319Q746 356 739 378T718 409T680 418Q654 418 633 406T600 370T587 308V119Q587 98 590 88T611 74L638 68V0H378V68L400 73Q417 76 422 85T427 116V319Q427 358 421 379T400
409T361 418Q336 418 315 406T281 370T268 308V119Q268 98 272 88T293 74L319 68V0H43Z" />
<glyph unicode="n" horiz-adv-x="694" d="M43 0V69L83 77Q99 80 104 89T109 125V368Q109 401 103 412T75 427L35 433L43 507L231 520L246 511L253 420H257Q282 469 327 497T435 526Q492 526 529 505T584 445T602 355V116Q602 95 608 87T633 75L670 69V0H386V68L416
74Q433 77 438 85T443 116V314Q443 353 436 375T413 408T369 418Q340 418 317 406T281 368T268 300V119Q268 97 272 88T293 75L328 68V0H43Z" />
<glyph unicode="o" horiz-adv-x="624" d="M306 -14Q221 -14 161 16T69 105T37 247Q37 340 72 402T173 495T324 526Q403 526 462 498T554 413T588 268Q588 178 554 115T457 19T306 -14ZM319 73Q355 73 377 92T409 150T419 247Q419 299 412 336T390 396T355 430T308
441Q276 441 253 425T217 373T205 278Q205 210 217 165T255 96T319 73Z" />
<glyph unicode="p" horiz-adv-x="660" d="M30 -216V-146L68 -140Q83 -138 89 -128T96 -92V364Q96 401 89 413T62 428L24 433L31 508L218 520L234 511L241 426H244Q264 457 288 479T345 513T419 526Q484 526 529 497T598 413T623 275Q623 187 596 122T515 22T378
-14Q343 -14 311 -7T255 15V-92Q255 -116 262 -126T289 -139L351 -148V-216H30ZM350 80Q386 80 409 99T443 159T455 263Q455 319 444 355T412 409T358 427Q325 427 302 412T267 369T255 304V112Q271 99 297 90T350 80Z" />
<glyph unicode="q" horiz-adv-x="641" d="M309 -216V-147L370 -139Q391 -136 397 -126T404 -91V60L402 61Q384 36 360 20T307 -5T249 -14Q179 -14 132 17T61 105T37 241Q37 328 66 392T152 491T288 526Q319 526 344 521T393 506T438 478L494 526L563 515V-91Q563
-117 569 -127T591 -139L630 -146V-216H309ZM305 83Q335 83 357 98T392 140T404 203V401Q384 416 361 424T311 432Q274 432 251 413T216 353T204 253Q204 168 229 126T305 83Z" />
<glyph unicode="r" horiz-adv-x="541" d="M43 0V70L84 77Q100 80 104 90T109 126V365Q109 398 104 410T76 427L35 433L43 507L228 520L244 511L253 419H257Q281 469 322 497T415 526Q469 526 500 497T532 417Q532 384 523 362T494 328T446 316Q409 316 391 331T373
369Q373 377 374 384T380 402T390 428Q369 436 348 430T308 405T279 360T268 300V124Q268 100 273 91T296 79L369 69V0H43Z" />
<glyph unicode="s" horiz-adv-x="498" d="M56 -14L42 164L122 169Q137 134 157 111T204 77T261 65Q300 65 320 81T340 128Q340 146 329 157T294 179T227 198Q192 207 160 219T102 249T63 294T48 362Q48 415 72 451T141 507T243 526Q282 526 314 517T367 493L375
526H441L452 357L373 362Q357 409 324 432T251 456Q216 456 197 442T177 401Q177 383 187 371T222 350T286 330Q328 319 362 307T420 276T457 232T470 166Q470 110 445 70T375 8T269 -14Q224 -14 190 -4T131 21L120 -14H56Z" />
<glyph unicode="t" horiz-adv-x="438" d="M256 -14Q205 -14 170 3T116 55T98 141V425H26V499Q70 505 96 525T135 582T153 677L240 688L257 680V512H399V425H257V168Q257 132 270 113T316 93Q338 93 358 100T399 120L433 59Q401 27 357 7T256 -14Z" />
<glyph unicode="u" horiz-adv-x="676" d="M255 -14Q175 -14 134 30T92 157V365Q92 397 87 410T58 427L21 433L28 507L235 520L251 511V196Q251 158 258 136T280 104T322 94Q353 94 375 107T408 148T420 213V366Q420 402 414 412T386 427L352 433L363 507L563 520L579
511V133Q579 104 585 93T610 78L650 71V0L445 -8L431 79H427Q408 52 386 31T332 -2T255 -14Z" />
<glyph unicode="v" horiz-adv-x="622" d="M237 0L89 376Q83 394 78 404T65 420T45 429L8 437L20 512H306V440L266 434Q251 431 248 421T253 385L347 129H351L440 379Q449 403 445 415T419 432L381 440L393 512H614V439L580 432Q562 428 554 419T534 380L389 0H237Z" />
<glyph unicode="w" horiz-adv-x="900" d="M203 0L86 376Q80 394 75 404T62 420T41 429L6 437L16 512H296V440L256 434Q242 431 239 421T243 385L310 147H315L406 512H570L664 148H668L733 378Q741 405 735 416T709 432L676 440L687 512H895V440L861 433Q842 429
830 417T808 369L698 0H554L458 367H454L363 0H203Z" />
<glyph unicode="x" horiz-adv-x="603" d="M12 0V69L43 75Q53 78 60 80T75 90T97 111L216 246L104 379Q84 403 71 415T39 431L5 437L17 512H304V441L272 436Q259 434 257 425T269 398L329 327L389 398Q402 415 402 423T385 435L356 441L368 512H579V441L548 435Q535
432 527 428T511 417T491 395L381 269L508 121Q520 107 530 98T551 83T575 74L600 70V0H291V69L323 74Q341 76 343 86T331 114L268 189L208 114Q200 104 196 96T195 83T210 75L240 69V0H12Z" />
<glyph unicode="y" horiz-adv-x="611" d="M138 -230Q81 -230 46 -204T10 -133Q10 -100 30 -77T85 -54Q116 -54 131 -67T147 -99Q147 -108 144 -123T135 -160Q160 -163 179 -152T213 -116T246 -50L263 -11L88 381Q77 405 70 415T45 430L12 437L22 512H308V440L270
435Q250 432 245 421T251 381L344 153H349L438 375Q448 399 444 413T417 432L379 440L391 512H608V439L573 432Q556 428 548 418T525 376L356 -27Q334 -79 313 -117T267 -180T211 -217T138 -230Z" />
<glyph unicode="z" horiz-adv-x="533" d="M37 0V65L312 433H222Q188 433 170 425T139 392T113 318L39 313L51 512H490V448L220 81H313Q340 81 357 85T387 103T410 139T435 201H506L492 0H37Z" />
<glyph unicode="{" horiz-adv-x="369" d="M242 -230Q173 -230 136 -195T98 -101Q98 -80 101 -46T108 30T115 112T118 187Q118 225 107 241T76 263T32 268V342Q57 343 76 347T108 368T120 423Q120 452 117 489T109 566T101 639T97 696Q97 755 135 789T241 823Q266
823 290 820T336 811L323 742Q314 744 304 745T281 746Q270 746 262 742T249 725T244 691Q244 670 247 636T254 563T260 491T263 435Q263 393 249 368T211 329T159 306Q188 297 211 282T249 242T264 176Q264 155 261 119T254 43T248 -34T245 -95Q245 -116 250 -129T264
-147T288 -152Q297 -152 308 -151T328 -148L340 -217Q319 -223 294 -226T242 -230Z" />
<glyph unicode="|" horiz-adv-x="441" d="M162 -110V802H279V-110H162Z" />
<glyph unicode="}" horiz-adv-x="369" d="M127 -230Q101 -230 76 -227T29 -217L41 -148Q50 -149 61 -150T81 -152Q96 -152 105 -147T119 -129T124 -95Q124 -71 122 -35T115 42T108 119T105 176Q105 217 119 242T158 282T210 306Q182 315 158 329T120 368T106 435Q106
456 108 490T115 563T122 635T125 691Q125 713 121 725T108 741T88 746Q76 746 66 745T46 742L33 811Q55 817 79 820T128 823Q196 823 234 789T272 696Q272 674 269 640T261 566T253 490T249 423Q249 385 261 368T293 347T337 342V268Q313 268 294 263T263 242T251
187Q251 153 254 112T261 30T268 -45T271 -101Q271 -160 234 -195T127 -230Z" />
<glyph unicode="~" horiz-adv-x="582" d="M121 226L57 250Q72 290 86 318T120 363T167 379Q191 379 226 373T299 356Q337 348 367 342T417 336Q432 336 441 347T462 380L526 358Q510 316 496 287T463 243T416 228Q390 228 356 234T276 252Q242 260 216 265T168
270Q152 270 144 260T121 226Z" />
<glyph unicode="&#xa0;" horiz-adv-x="200" />
<glyph unicode="&#xa1;" horiz-adv-x="343" d="M213 301V233Q213 185 218 143T230 64T244 -6T257 -68T262 -122Q262 -151 249 -168T213 -194T165 -203Q122 -203 97 -184T71 -124Q71 -93 79 -56T97 26T116 122T124 234V301H213ZM168 526Q209 526 233 504T258 446Q258
409 234 387T168 365Q126 365 103 387T79 446Q79 481 103 503T168 526Z" />
<glyph unicode="&#xa2;" horiz-adv-x="545" d="M157 -31L293 648H397L261 -31H157ZM292 33Q211 33 154 65T67 156T37 293Q37 377 69 440T163 538T311 574Q374 574 420 555T490 504T515 436Q515 413 506 395T479 365T432 354Q398 354 378 368T358 410Q358 421 363
435T384 475Q368 486 351 490T309 494Q277 494 252 475T214 417T200 325Q200 240 235 195T338 149Q375 149 408 160T476 197L521 138Q484 92 428 63T292 33Z" />
<glyph unicode="&#xa3;" horiz-adv-x="602" d="M61 0L48 70Q91 89 116 110T153 161T165 228Q165 249 160 268T146 305H19L28 385H105Q93 411 84 442T75 513Q75 573 106 618T195 689T333 715Q401 715 448 697T521 646T546 574Q546 539 524 517T461 494Q424 494
404 510T383 552Q383 561 385 570T393 592T411 623Q397 631 377 636T337 641Q289 641 264 613T238 529Q238 500 244 475T261 429T282 385H467V305H312Q315 293 317 281T320 255Q320 213 301 177T237 108L239 103H366Q394 103 412 106T442 120T464 152T485 209H572L550
0H61Z" />
<glyph unicode="&#xa4;" horiz-adv-x="557" d="M464 85L377 155Q353 145 326 140T273 135Q249 135 223 140T174 153L89 85L36 137L92 218Q79 239 73 264T66 317Q66 347 73 372T96 422L39 503L93 555L178 487Q202 497 229 502T280 507Q305 507 332 503T383 489L468
556L522 504L463 418Q474 399 480 377T486 326Q486 295 479 268T459 221L517 138L464 85ZM274 206Q298 206 313 219T334 259T341 322Q341 380 326 406T278 433Q246 433 229 406T212 320Q212 265 227 236T274 206Z" />
<glyph unicode="&#xa5;" horiz-adv-x="746" d="M211 0V71L270 79Q289 81 295 91T301 130V216H79L85 283H284V297L256 344H82L88 411H217L121 569Q108 591 97 604T61 621L21 628V701H355V629L305 622Q286 620 283 608T292 572L415 370H420L535 566Q549 590 546
603T517 621L470 630V701H746V629L696 620Q679 617 668 606T639 565L548 411H651V342H507L480 297V283H651V216H465V126Q465 101 471 91T497 79L556 71V0H211Z" />
<glyph unicode="&#xa6;" horiz-adv-x="441" d="M162 -110V302H277L278 -110H162ZM162 416V803H277L278 416H162Z" />
<glyph unicode="&#xa7;" horiz-adv-x="621" d="M288 -158Q237 -159 199 -147T140 -110T118 -50Q118 -31 126 -14T151 14T194 24Q224 24 243 11T263 -25Q263 -33 260 -43T252 -64T238 -88Q244 -91 251 -93T268 -95T288 -95Q309 -95 324 -87T347 -64T357 -30Q357
-1 341 24T292 75T209 131Q157 164 123 191T71 243T45 291T38 338Q38 382 64 418T144 487Q139 502 137 519T134 555Q134 603 159 639T227 695T327 717Q376 717 413 705T472 668T493 609Q493 591 486 574T461 545T417 535Q388 535 368 549T348 584Q348 592 351 602T360
623T373 647Q368 650 360 652T344 654T328 654Q299 654 282 637T265 591Q264 561 281 535T331 483T415 427Q466 397 499 370T550 318T576 270T584 223Q583 179 557 142T476 71Q482 56 485 39T488 4Q488 -43 462 -79T392 -136T288 -158ZM437 123Q451 134 457 149T464
179Q464 199 448 220T403 265T335 315Q301 339 273 358T224 397T183 435Q170 423 164 410T158 381Q158 366 167 349T194 315T237 279T292 239Q342 206 377 178T437 123Z" />
<glyph unicode="&#xa8;" horiz-adv-x="500" d="M363 608Q326 608 302 629T278 688Q278 723 302 744T363 766Q405 766 427 745T449 688Q449 652 425 630T363 608ZM135 608Q97 608 74 629T50 688Q50 723 73 744T135 766Q177 766 198 745T220 688Q220 652 196 630T135 608Z" />
<glyph unicode="&#xa9;" horiz-adv-x="837" d="M419 -17Q301 -17 221 27T101 148T60 326Q60 405 89 469T168 578T283 647T420 671Q497 671 562 647T675 579T751 472T778 333Q778 254 754 190T683 80T570 8T419 -17ZM420 49Q492 49 544 71T630 132T680 221T697
326Q697 412 663 475T566 572T420 606Q337 606 274 571T176 473T141 322Q141 267 157 218T208 131T294 71T420 49ZM425 114Q362 114 317 140T249 212T225 318Q225 385 250 431T318 503T414 528Q446 528 472 518T513 496L518 528H561L585 383L531 374Q516 417 493
440T434 464Q406 464 386 449T355 404T343 328Q343 297 350 271T371 225T404 196T450 186Q486 186 510 200T556 236L591 191Q569 169 546 151T493 124T425 114Z" />
<glyph unicode="&#xaa;" horiz-adv-x="447" d="M143 362Q110 362 85 372T44 405T29 460Q29 507 60 532T150 565Q173 569 198 571T252 574V605Q252 631 246 648T227 672T190 680Q172 680 158 677T132 668Q140 656 143 646T147 631Q147 616 134 605T92 593Q65 593
53 607T41 643Q41 671 62 693T121 728T209 742Q264 742 301 729T357 687T376 607V468Q376 452 382 444T404 435Q411 435 418 436T434 441L444 394Q429 380 406 371T351 362Q316 362 294 377T266 417Q251 393 220 378T143 362ZM199 434Q212 434 224 439T244 456T252
484V524Q224 524 203 520T171 504T159 474Q159 457 170 446T199 434Z" />
<glyph unicode="&#xab;" horiz-adv-x="542" d="M465 39L286 202Q269 217 262 232T255 265Q255 285 264 299T291 332L463 491L516 451L400 269L519 79L465 39ZM248 39L69 202Q52 217 45 232T38 265Q38 285 47 299T74 332L246 491L299 451L183 269L302 79L248 39Z" />
<glyph unicode="&#xac;" horiz-adv-x="582" d="M394 140V280H77V387H505V140H394Z" />
<glyph unicode="&#xad;" horiz-adv-x="339" d="M37 239V349H303V239H37Z" />
<glyph unicode="&#xae;" horiz-adv-x="490" d="M245 389Q180 389 136 414T70 482T47 579Q47 640 74 684T146 752T246 776Q337 776 390 724T443 586Q443 528 418 484T348 414T245 389ZM331 465Q344 465 354 468T372 478L368 497Q365 496 362 496T355 495Q347 495
342 500T332 516L320 543Q314 559 303 569T271 583V585Q285 587 299 593T322 612T331 645Q331 676 306 689T242 703H140L138 682L155 679Q162 678 165 675T168 664V510Q168 503 167 499T157 493L138 490V469H248V490L232 493Q225 494 223 498T220 510V573H233Q242
573 249 567T263 542L277 505Q286 485 298 475T331 465ZM220 598V679H234Q255 679 265 669T276 640Q276 622 267 610T233 598H220Z" />
<glyph unicode="&#xaf;" horiz-adv-x="500" d="M91 625V732H409V625H91Z" />
<glyph unicode="&#xb0;" horiz-adv-x="370" d="M184 545Q112 545 78 579T43 665Q43 717 79 754T188 792Q256 792 291 759T327 671Q327 619 290 582T184 545ZM186 610Q210 610 226 624T243 668Q243 698 227 712T186 726Q163 726 148 711T132 667Q132 639 147 625T186 610Z" />
<glyph unicode="&#xb1;" horiz-adv-x="582" d="M232 172V314H79V420H232V554H343V420H503V314H343V172H232ZM78 1V108H504V1H78Z" />
<glyph unicode="&#xb2;" horiz-adv-x="412" d="M38 374L29 449Q96 510 138 550T202 616T233 663T241 706Q241 737 224 755T175 774Q155 774 140 770T115 758Q122 744 127 734T133 713Q133 697 119 683T79 669Q49 669 34 683T18 725Q18 759 41 785T105 825T197
839Q247 839 286 826T347 785T370 714Q370 687 359 662T323 610T255 547T144 465H233Q263 465 277 469T300 487T320 528H385L372 374H38Z" />
<glyph unicode="&#xb3;" horiz-adv-x="423" d="M199 361Q152 361 118 372T60 401T21 435L66 494Q80 482 96 472T132 455T176 448Q202 448 218 455T243 477T252 508Q252 532 239 546T200 566T134 570L140 631Q193 636 218 657T244 716Q244 743 227 760T179 777Q162
777 147 772T125 759Q132 747 138 737T144 717Q144 699 130 688T90 676Q61 676 46 690T30 728Q30 761 53 786T115 825T203 839Q252 839 290 826T349 788T371 727Q371 686 340 656T258 614V609Q316 603 349 577T383 498Q383 457 358 426T292 378T199 361Z" />
<glyph unicode="&#xb4;" horiz-adv-x="500" d="M202 575L167 611L277 769Q289 788 300 794T326 801Q348 801 361 790T381 763T388 734Q388 718 379 703T350 674L202 575Z" />
<glyph unicode="&#xb5;" horiz-adv-x="666" d="M98 -225L82 -216Q79 -172 77 -123T74 -23T72 76Q72 93 72 126T72 203T71 293T71 383T71 460T70 510L220 520L235 511Q232 453 230 400T226 298T225 201T224 108Q236 97 255 91T299 84Q347 84 373 115T399 203Q399
212 399 233T399 283T399 345T398 409T398 467T397 510L548 520L563 511Q560 470 558 433T555 360T552 291T551 229T550 172Q550 138 555 118T570 89T599 80Q608 80 617 82T638 87L651 31Q628 11 594 -1T528 -14Q501 -14 477 -2T437 33T413 88H412Q400 42 368 14T294
-14Q275 -14 258 -7T226 12H224Q227 -26 230 -63T239 -138T252 -215L98 -225Z" />
<glyph unicode="&#xb6;" horiz-adv-x="629" d="M271 -143V-72L355 -66Q373 -64 379 -54T386 -16V701H596V630L558 625Q539 623 533 612T526 575V-143H271ZM293 240Q219 240 164 264T79 339T49 466Q49 543 76 595T158 674T297 701H325V240H293Z" />
<glyph unicode="&#xb7;" horiz-adv-x="329" d="M164 220Q120 220 94 243T68 307Q68 345 94 369T164 394Q210 394 235 370T261 307Q261 268 235 244T164 220Z" />
<glyph unicode="&#xb8;" horiz-adv-x="500" d="M254 -243Q209 -243 176 -230T128 -204L149 -153Q167 -163 186 -167T221 -172Q242 -172 254 -162T267 -133Q267 -116 256 -107T221 -98Q211 -98 203 -99T186 -102L174 -70L207 13H280L257 -49Q294 -44 320 -54T361
-85T375 -137Q375 -171 360 -195T318 -231T254 -243Z" />
<glyph unicode="&#xb9;" horiz-adv-x="337" d="M34 374V434L89 442Q104 444 108 452T113 474V704Q113 725 109 732T82 743L25 747L31 808L230 835L245 823V472Q245 457 249 451T270 442L322 434V374H34Z" />
<glyph unicode="&#xba;" horiz-adv-x="456" d="M223 361Q161 361 118 383T51 446T27 545Q27 616 55 659T132 722T237 742Q291 742 334 723T403 664T429 560Q429 495 404 451T332 384T223 361ZM233 427Q258 427 272 440T294 479T301 546Q301 593 292 622T266 664T225
678Q204 678 188 668T164 633T155 568Q155 521 163 490T188 443T233 427Z" />
<glyph unicode="&#xbb;" horiz-adv-x="542" d="M332 39L279 79L397 268L279 450L333 491L507 331Q524 316 533 301T542 266Q542 248 535 234T509 201L332 39ZM295 39L242 79L360 268L242 450L296 491L470 331Q487 316 496 301T505 266Q505 248 498 234T472 201L295 39Z" />
<glyph unicode="&#xbc;" horiz-adv-x="1000" d="M34 515V575L89 583Q104 585 108 593T113 615V845Q113 866 109 873T82 884L25 888L31 949L230 976L245 964V613Q245 598 249 592T270 583L322 575V515H34ZM238 -14L655 714H775L359 -14H238ZM787 0V86H584L574 146L784
455L902 466L916 456V158H983V86H916V0H787ZM658 158H787V335V347L658 158Z" />
<glyph unicode="&#xbd;" horiz-adv-x="1051" d="M34 515V575L89 583Q104 585 108 593T113 615V845Q113 866 109 873T82 884L25 888L31 949L230 976L245 964V613Q245 598 249 592T270 583L322 575V515H34ZM237 -14L654 714H774L358 -14H237ZM677 13L668 88Q735
149 777 189T841 255T872 302T880 345Q880 376 863 394T814 413Q794 413 779 409T754 397Q761 383 766 373T772 352Q772 336 758 322T718 308Q688 308 673 322T657 364Q657 398 680 424T744 464T836 478Q886 478 925 465T986 424T1009 353Q1009 326 998 301T962
249T894 186T783 104H872Q902 104 916 108T939 126T959 167H1024L1011 13H677Z" />
<glyph unicode="&#xbe;" horiz-adv-x="1042" d="M279 -14L696 714H816L400 -14H279ZM829 0V86H626L616 146L826 455L944 466L958 456V158H1025V86H958V0H829ZM700 158H829V335V347L700 158ZM199 492Q152 492 118 503T60 532T21 566L66 625Q80 613 96 603T132 586T176
579Q202 579 218 586T243 608T252 639Q252 663 239 677T200 697T134 701L140 762Q193 767 218 788T244 847Q244 874 227 891T179 908Q162 908 147 903T125 890Q132 878 138 868T144 848Q144 830 130 819T90 807Q61 807 46 821T30 859Q30 892 53 917T115 956T203
970Q252 970 290 957T349 919T371 858Q371 817 340 787T258 745V740Q316 734 349 708T383 629Q383 588 358 557T292 509T199 492Z" />
<glyph unicode="&#xbf;" horiz-adv-x="559" d="M361 301V185Q361 159 355 139T334 100T289 57Q251 25 234 3T217 -49Q217 -85 242 -106T309 -127Q339 -127 361 -119T398 -98Q386 -80 377 -63T368 -30Q368 -10 386 6T438 23Q475 23 494 3T514 -49Q514 -90 485 -125T403
-181T280 -202Q209 -202 160 -182T84 -126T58 -39Q58 -2 71 28T112 87T180 145Q207 168 223 183T247 210T257 231T260 251V301H361ZM310 527Q351 527 375 505T400 447Q400 410 376 388T310 366Q268 366 245 388T221 447Q221 482 245 504T310 527Z" />
<glyph unicode="&#xc0;" horiz-adv-x="755" d="M7 0V73L47 81Q66 85 76 96T96 135L300 701H461L665 131Q676 103 684 93T712 79L747 72V0H424V73L471 79Q489 82 493 94T490 130L463 212H226L199 134Q192 113 194 98T224 78L268 71V0H7ZM253 293H439L351 571H347L253
293ZM454 743L285 813Q258 824 246 840T233 879Q233 904 248 925T293 946Q304 946 314 941T340 921L482 786L454 743Z" />
<glyph unicode="&#xc1;" horiz-adv-x="755" d="M7 0V73L47 81Q66 85 76 96T96 135L300 701H461L665 131Q676 103 684 93T712 79L747 72V0H424V73L471 79Q489 82 493 94T490 130L463 212H226L199 134Q192 113 194 98T224 78L268 71V0H7ZM253 293H439L351 571H347L253
293ZM303 743L275 786L418 921Q433 935 443 940T465 946Q493 946 509 925T525 879Q525 857 513 841T472 813L303 743Z" />
<glyph unicode="&#xc2;" horiz-adv-x="755" d="M7 0V73L47 81Q66 85 76 96T96 135L300 701H461L665 131Q676 103 684 93T712 79L747 72V0H424V73L471 79Q489 82 493 94T490 130L463 212H226L199 134Q192 113 194 98T224 78L268 71V0H7ZM253 293H439L351 571H347L253
293ZM234 739L198 782L319 920Q336 940 350 948T382 956Q399 956 413 948T446 918L560 783L525 739L380 828L234 739Z" />
<glyph unicode="&#xc3;" horiz-adv-x="742" d="M7 0V73L47 81Q66 85 76 96T96 135L300 701H461L665 131Q676 103 684 93T712 79L747 72V0H424V73L471 79Q489 82 493 94T490 130L463 212H226L199 134Q192 113 194 98T224 78L268 71V0H7ZM253 293H439L351 571H347L253
293ZM453 768Q429 768 407 774T359 791Q342 799 328 804T302 813T281 816Q269 816 259 808T236 777L186 806Q205 852 221 878T257 915T302 926Q324 926 345 919T393 900Q419 889 436 883T470 877Q484 877 493 885T515 916L565 888Q547 843 531 817T496 780T453
768Z" />
<glyph unicode="&#xc4;" horiz-adv-x="755" d="M7 0V73L47 81Q66 85 76 96T96 135L300 701H461L665 131Q676 103 684 93T712 79L747 72V0H424V73L471 79Q489 82 493 94T490 130L463 212H226L199 134Q192 113 194 98T224 78L268 71V0H7ZM253 293H439L351 571H347L253
293ZM493 772Q456 772 432 794T408 853Q408 888 432 910T493 932Q536 932 557 911T579 853Q579 816 555 794T493 772ZM263 772Q225 772 201 794T177 853Q177 888 201 910T263 932Q305 932 327 911T349 853Q349 816 325 794T263 772Z" />
<glyph unicode="&#xc5;" horiz-adv-x="755" d="M7 0V73L47 81Q66 85 76 96T96 135L300 701H461L665 131Q676 103 684 93T712 79L747 72V0H424V73L471 79Q489 82 493 94T490 130L463 212H226L199 134Q192 113 194 98T224 78L268 71V0H7ZM253 293H439L351 571H347L253
293ZM374 744Q308 744 273 775T238 858Q238 893 255 918T305 956T383 970Q452 970 486 941T521 859Q521 824 503 798T452 758T374 744ZM379 798Q402 798 412 813T422 858Q422 878 417 891T402 910T378 917Q355 917 345 902T335 858Q335 838 339 825T353 805T379
798Z" />
<glyph unicode="&#xc6;" horiz-adv-x="1035" d="M7 0V73L46 81Q58 84 66 88T81 103T98 134L332 620L261 630V701H947L981 516L892 501Q882 536 871 559T846 595T811 613T758 619H662V385H719Q739 385 751 388T769 398T780 421T790 459L857 465V235L789 224Q784
258 779 274T760 297T718 303H662V83H776Q809 83 830 89T865 110T889 149T908 213H998L973 0H421V71L464 79Q484 83 490 93T496 130V302H288L211 140Q205 127 203 116T201 98T209 86T228 79L277 71L276 0H7ZM326 384H496V619H432L326 384Z" />
<glyph unicode="&#xc7;" horiz-adv-x="709" d="M384 -243Q339 -243 306 -230T257 -204L279 -153Q297 -163 316 -167T351 -172Q372 -172 384 -162T396 -133Q396 -116 386 -107T351 -98Q340 -98 332 -99T315 -102L304 -70L327 -11Q239 0 176 46T77 169T42 349Q42
431 66 498T134 614T241 689T381 715Q431 715 470 701T541 660L552 716H617L656 471L575 455Q555 515 529 551T469 603T393 619Q334 619 295 590T237 504T217 366Q217 295 233 245T277 162T342 114T420 99Q463 99 498 110T562 143T611 189L667 125Q650 101 626
79T572 37T504 6T424 -10Q418 -11 412 -12T400 -13L386 -49Q424 -44 450 -54T491 -85T505 -137Q505 -171 490 -195T448 -231T384 -243Z" />
<glyph unicode="&#xc8;" horiz-adv-x="663" d="M49 0V71L92 79Q111 82 117 91T123 130V576Q123 602 117 611T90 623L49 630V701H575L610 516L521 501Q510 536 500 559T475 595T439 613T386 619H290V397H347Q372 397 384 402T404 423T418 471L485 477V244L418 234Q413
267 407 284T386 306T346 312H290V83H404Q437 83 458 89T494 110T517 149T537 213H627L601 0H49ZM410 743L241 813Q214 824 202 840T189 879Q189 904 204 925T249 946Q260 946 270 941T296 921L438 786L410 743Z" />
<glyph unicode="&#xc9;" horiz-adv-x="663" d="M49 0V71L92 79Q111 82 117 91T123 130V576Q123 602 117 611T90 623L49 630V701H575L610 516L521 501Q510 536 500 559T475 595T439 613T386 619H290V397H347Q372 397 384 402T404 423T418 471L485 477V244L418 234Q413
267 407 284T386 306T346 312H290V83H404Q437 83 458 89T494 110T517 149T537 213H627L601 0H49ZM259 743L231 786L374 921Q389 935 399 940T421 946Q449 946 465 925T481 879Q481 857 469 841T428 813L259 743Z" />
<glyph unicode="&#xca;" horiz-adv-x="663" d="M49 0V71L92 79Q111 82 117 91T123 130V576Q123 602 117 611T90 623L49 630V701H575L610 516L521 501Q510 536 500 559T475 595T439 613T386 619H290V397H347Q372 397 384 402T404 423T418 471L485 477V244L418 234Q413
267 407 284T386 306T346 312H290V83H404Q437 83 458 89T494 110T517 149T537 213H627L601 0H49ZM190 739L154 782L275 920Q292 940 306 948T338 956Q355 956 369 948T402 918L516 783L481 739L336 828L190 739Z" />
<glyph unicode="&#xcb;" horiz-adv-x="663" d="M49 0V71L92 79Q111 82 117 91T123 130V576Q123 602 117 611T90 623L49 630V701H575L610 516L521 501Q510 536 500 559T475 595T439 613T386 619H290V397H347Q372 397 384 402T404 423T418 471L485 477V244L418 234Q413
267 407 284T386 306T346 312H290V83H404Q437 83 458 89T494 110T517 149T537 213H627L601 0H49ZM449 772Q412 772 388 794T364 853Q364 888 388 910T449 932Q492 932 513 911T535 853Q535 816 511 794T449 772ZM219 772Q181 772 157 794T133 853Q133 888 157 910T219
932Q261 932 283 911T305 853Q305 816 281 794T219 772Z" />
<glyph unicode="&#xcc;" horiz-adv-x="417" d="M49 0V71L94 79Q114 83 119 93T125 129V575Q125 601 119 610T91 623L49 630V701H368V630L322 622Q305 619 299 609T292 572V126Q292 100 298 92T324 79L368 71V0H49ZM540 743L371 813Q344 824 332 840T319 879Q319
904 334 925T379 946Q390 946 400 941T426 921L568 786L540 743Z" />
<glyph unicode="&#xcd;" horiz-adv-x="417" d="M49 0V71L94 79Q114 83 119 93T125 129V575Q125 601 119 610T91 623L49 630V701H368V630L322 622Q305 619 299 609T292 572V126Q292 100 298 92T324 79L368 71V0H49ZM389 743L361 786L504 921Q519 935 529 940T551
946Q579 946 595 925T611 879Q611 857 599 841T558 813L389 743Z" />
<glyph unicode="&#xce;" horiz-adv-x="417" d="M49 0V71L94 79Q114 83 119 93T125 129V575Q125 601 119 610T91 623L49 630V701H368V630L322 622Q305 619 299 609T292 572V126Q292 100 298 92T324 79L368 71V0H49ZM320 739L284 782L405 920Q422 940 436 948T468
956Q485 956 499 948T532 918L646 783L611 739L466 828L320 739Z" />
<glyph unicode="&#xcf;" horiz-adv-x="417" d="M49 0V71L94 79Q114 83 119 93T125 129V575Q125 601 119 610T91 623L49 630V701H368V630L322 622Q305 619 299 609T292 572V126Q292 100 298 92T324 79L368 71V0H49ZM579 772Q542 772 518 794T494 853Q494 888 518
910T579 932Q622 932 643 911T665 853Q665 816 641 794T579 772ZM349 772Q311 772 287 794T263 853Q263 888 287 910T349 932Q391 932 413 911T435 853Q435 816 411 794T349 772Z" />
<glyph unicode="&#xd0;" horiz-adv-x="778" d="M370 701Q430 701 484 690T585 656T664 593T717 500T736 371Q736 281 710 212T631 96T500 24T319 0H49V71L92 79Q111 82 117 91T123 130V313H16L26 407H123V576Q123 601 117 610T90 623L49 630V701H370ZM348 91Q405
91 445 107T510 157T548 242T560 364Q560 448 537 502T468 583T358 610H290V407H432V313H290V95Q302 93 317 92T348 91Z" />
<glyph unicode="&#xd1;" horiz-adv-x="837" d="M49 0V71L92 79Q110 82 116 92T123 130V575Q123 601 117 610T90 623L49 630V701H305L602 205L604 209V575Q604 600 598 609T571 622L531 630V701H790V630L748 623Q730 620 724 610T717 572V0H544L238 497L236 493V126Q236
99 242 91T268 79L309 71V0H49ZM492 768Q468 768 446 774T398 791Q381 799 367 804T341 813T320 816Q308 816 298 808T275 777L225 806Q244 852 260 878T296 915T341 926Q363 926 384 919T432 900Q458 889 475 883T509 877Q523 877 532 885T554 916L604 888Q586
843 570 817T535 780T492 768Z" />
<glyph unicode="&#xd2;" horiz-adv-x="777" d="M383 -14Q272 -14 196 31T81 156T42 338Q42 458 86 542T211 670T400 715Q501 715 576 674T692 556T734 367Q734 286 711 217T644 95T534 15T383 -14ZM396 84Q435 84 465 98T516 144T546 227T557 350Q557 417 546
467T512 551T458 602T384 619Q344 619 313 604T261 557T229 476T218 358Q218 291 229 240T263 154T319 102T396 84ZM465 743L296 813Q269 824 257 840T244 879Q244 904 259 925T304 946Q315 946 325 941T351 921L493 786L465 743Z" />
<glyph unicode="&#xd3;" horiz-adv-x="777" d="M383 -14Q272 -14 196 31T81 156T42 338Q42 458 86 542T211 670T400 715Q501 715 576 674T692 556T734 367Q734 286 711 217T644 95T534 15T383 -14ZM396 84Q435 84 465 98T516 144T546 227T557 350Q557 417 546
467T512 551T458 602T384 619Q344 619 313 604T261 557T229 476T218 358Q218 291 229 240T263 154T319 102T396 84ZM314 743L286 786L429 921Q444 935 454 940T476 946Q504 946 520 925T536 879Q536 857 524 841T483 813L314 743Z" />
<glyph unicode="&#xd4;" horiz-adv-x="777" d="M383 -14Q272 -14 196 31T81 156T42 338Q42 458 86 542T211 670T400 715Q501 715 576 674T692 556T734 367Q734 286 711 217T644 95T534 15T383 -14ZM396 84Q435 84 465 98T516 144T546 227T557 350Q557 417 546
467T512 551T458 602T384 619Q344 619 313 604T261 557T229 476T218 358Q218 291 229 240T263 154T319 102T396 84ZM245 739L209 782L330 920Q347 940 361 948T393 956Q410 956 424 948T457 918L571 783L536 739L391 828L245 739Z" />
<glyph unicode="&#xd5;" horiz-adv-x="777" d="M383 -14Q272 -14 196 31T81 156T42 338Q42 458 86 542T211 670T400 715Q501 715 576 674T692 556T734 367Q734 286 711 217T644 95T534 15T383 -14ZM396 84Q435 84 465 98T516 144T546 227T557 350Q557 417 546
467T512 551T458 602T384 619Q344 619 313 604T261 557T229 476T218 358Q218 291 229 240T263 154T319 102T396 84ZM468 768Q444 768 422 774T374 791Q357 799 343 804T317 813T296 816Q284 816 274 808T251 777L201 806Q220 852 236 878T272 915T317 926Q339 926
360 919T408 900Q434 889 451 883T485 877Q499 877 508 885T530 916L580 888Q562 843 546 817T511 780T468 768Z" />
<glyph unicode="&#xd6;" horiz-adv-x="777" d="M383 -14Q272 -14 196 31T81 156T42 338Q42 458 86 542T211 670T400 715Q501 715 576 674T692 556T734 367Q734 286 711 217T644 95T534 15T383 -14ZM396 84Q435 84 465 98T516 144T546 227T557 350Q557 417 546
467T512 551T458 602T384 619Q344 619 313 604T261 557T229 476T218 358Q218 291 229 240T263 154T319 102T396 84ZM504 772Q467 772 443 794T419 853Q419 888 443 910T504 932Q547 932 568 911T590 853Q590 816 566 794T504 772ZM274 772Q236 772 212 794T188
853Q188 888 212 910T274 932Q316 932 338 911T360 853Q360 816 336 794T274 772Z" />
<glyph unicode="&#xd7;" horiz-adv-x="582" d="M410 110L290 231L170 112L97 185L216 306L98 422L171 495L289 378L410 500L483 425L362 304L483 183L410 110Z" />
<glyph unicode="&#xd8;" horiz-adv-x="777" d="M29 -14L120 95Q81 141 62 203T42 338Q42 458 86 542T211 670T400 715Q457 715 506 702T594 661L639 715H749L658 607Q695 563 714 503T734 367Q734 286 711 217T644 95T534 15T383 -14Q324 -14 274 0T184 40L139
-14H29ZM396 84Q435 84 465 98T516 144T546 227T557 350Q557 383 553 412T540 466L271 144Q286 124 305 111T346 91T396 84ZM238 235L507 558Q493 578 474 591T433 612T384 619Q344 619 313 604T261 557T229 476T218 358Q218 322 223 292T238 235Z" />
<glyph unicode="&#xd9;" horiz-adv-x="785" d="M396 -14Q316 -14 261 6T174 62T127 148T112 258V574Q112 600 106 610T78 623L37 630V701H352V630L308 622Q290 619 284 609T278 572V258Q278 203 293 166T339 111T424 92Q480 92 513 112T561 169T576 260V574Q576
600 570 610T542 623L502 630V701H750V630L708 622Q689 619 683 609T676 570V271Q676 175 645 112T551 18T396 -14ZM493 743L324 813Q297 824 285 840T272 879Q272 904 287 925T332 946Q343 946 353 941T379 921L521 786L493 743Z" />
<glyph unicode="&#xda;" horiz-adv-x="785" d="M396 -14Q316 -14 261 6T174 62T127 148T112 258V574Q112 600 106 610T78 623L37 630V701H352V630L308 622Q290 619 284 609T278 572V258Q278 203 293 166T339 111T424 92Q480 92 513 112T561 169T576 260V574Q576
600 570 610T542 623L502 630V701H750V630L708 622Q689 619 683 609T676 570V271Q676 175 645 112T551 18T396 -14ZM342 743L314 786L457 921Q472 935 482 940T504 946Q532 946 548 925T564 879Q564 857 552 841T511 813L342 743Z" />
<glyph unicode="&#xdb;" horiz-adv-x="785" d="M396 -14Q316 -14 261 6T174 62T127 148T112 258V574Q112 600 106 610T78 623L37 630V701H352V630L308 622Q290 619 284 609T278 572V258Q278 203 293 166T339 111T424 92Q480 92 513 112T561 169T576 260V574Q576
600 570 610T542 623L502 630V701H750V630L708 622Q689 619 683 609T676 570V271Q676 175 645 112T551 18T396 -14ZM273 739L237 782L358 920Q375 940 389 948T421 956Q438 956 452 948T485 918L599 783L564 739L419 828L273 739Z" />
<glyph unicode="&#xdc;" horiz-adv-x="785" d="M396 -14Q316 -14 261 6T174 62T127 148T112 258V574Q112 600 106 610T78 623L37 630V701H352V630L308 622Q290 619 284 609T278 572V258Q278 203 293 166T339 111T424 92Q480 92 513 112T561 169T576 260V574Q576
600 570 610T542 623L502 630V701H750V630L708 622Q689 619 683 609T676 570V271Q676 175 645 112T551 18T396 -14ZM532 772Q495 772 471 794T447 853Q447 888 471 910T532 932Q575 932 596 911T618 853Q618 816 594 794T532 772ZM302 772Q264 772 240 794T216
853Q216 888 240 910T302 932Q344 932 366 911T388 853Q388 816 364 794T302 772Z" />
<glyph unicode="&#xdd;" horiz-adv-x="745" d="M200 0V71L259 79Q278 81 284 91T290 130V267L110 569Q97 591 86 604T50 621L10 628V701H344V629L294 622Q275 620 271 608T281 572L404 370H409L524 566Q538 590 535 603T506 621L459 630V701H735V629L685 620Q668
617 657 606T628 565L454 269V126Q454 101 460 91T486 79L545 71V0H200ZM321 743L293 786L436 921Q451 935 461 940T483 946Q511 946 527 925T543 879Q543 857 531 841T490 813L321 743Z" />
<glyph unicode="&#xde;" horiz-adv-x="658" d="M49 0V71L92 79Q111 82 117 91T123 130V569Q123 594 117 605T92 620L49 628V699H399V628L328 620Q306 617 298 609T290 579V549H355Q407 549 450 543T527 524T586 490T623 436T636 361Q636 317 620 283T578 225T518
186T448 163T378 156Q363 156 347 156T315 157T290 159V120Q290 100 296 91T328 79L399 71V0H49ZM290 241Q301 240 314 240T340 240Q371 240 394 248T433 272T457 311T465 364Q465 401 451 424T409 459T338 471H290V241Z" />
<glyph unicode="&#xdf;" horiz-adv-x="763" d="M332 -14L317 165L398 169Q406 145 419 126T449 93T487 72T533 65Q555 65 572 72T600 94T610 130Q610 156 593 171T550 198T493 220T437 247T393 290T375 359Q375 394 386 419T414 466T446 509T473 557T484 620Q484
657 470 676T432 704T385 712Q358 712 336 704T299 680T275 638T266 576V0H32V69L76 77Q97 81 102 92T107 128V425H32V496L108 510V536Q108 594 127 639T184 717T274 765T395 782Q461 782 514 767T597 722T628 644Q628 613 616 589T584 544T545 505T513 467T500
425Q500 398 517 381T563 352T621 327T680 296T725 248T743 172Q743 119 717 77T646 10T543 -14Q490 -14 458 0T407 26L396 -14H332Z" />
<glyph unicode="&#xe0;" horiz-adv-x="578" d="M190 -14Q118 -14 78 23T37 122Q37 182 67 216T162 265T327 285V353Q327 390 319 413T293 448T242 460Q220 460 198 454T161 437Q171 422 176 410T185 390T188 376Q188 354 169 339T113 324Q79 324 62 340T45 384Q45
424 73 456T152 507T269 526Q344 526 391 506T462 443T486 335V125Q486 102 495 91T524 80Q534 80 544 82T564 87L577 31Q557 13 524 0T456 -14Q408 -14 380 9T344 69Q330 46 309 27T259 -3T190 -14ZM252 73Q275 73 291 82T317 109T327 150V220Q282 220 252 212T208
185T194 139Q194 109 208 91T252 73ZM321 575L173 674Q154 687 145 702T135 734Q135 747 141 762T162 789T197 801Q212 801 223 795T247 769L356 611L321 575Z" />
<glyph unicode="&#xe1;" horiz-adv-x="578" d="M190 -14Q118 -14 78 23T37 122Q37 182 67 216T162 265T327 285V353Q327 390 319 413T293 448T242 460Q220 460 198 454T161 437Q171 422 176 410T185 390T188 376Q188 354 169 339T113 324Q79 324 62 340T45 384Q45
424 73 456T152 507T269 526Q344 526 391 506T462 443T486 335V125Q486 102 495 91T524 80Q534 80 544 82T564 87L577 31Q557 13 524 0T456 -14Q408 -14 380 9T344 69Q330 46 309 27T259 -3T190 -14ZM252 73Q275 73 291 82T317 109T327 150V220Q282 220 252 212T208
185T194 139Q194 109 208 91T252 73ZM224 575L189 611L299 769Q311 788 322 794T348 801Q370 801 383 790T403 763T410 734Q410 718 401 703T372 674L224 575Z" />
<glyph unicode="&#xe2;" horiz-adv-x="578" d="M190 -14Q118 -14 78 23T37 122Q37 182 67 216T162 265T327 285V353Q327 390 319 413T293 448T242 460Q220 460 198 454T161 437Q171 422 176 410T185 390T188 376Q188 354 169 339T113 324Q79 324 62 340T45 384Q45
424 73 456T152 507T269 526Q344 526 391 506T462 443T486 335V125Q486 102 495 91T524 80Q534 80 544 82T564 87L577 31Q557 13 524 0T456 -14Q408 -14 380 9T344 69Q330 46 309 27T259 -3T190 -14ZM252 73Q275 73 291 82T317 109T327 150V220Q282 220 252 212T208
185T194 139Q194 109 208 91T252 73ZM133 575L93 613L205 765Q222 788 237 795T273 803Q292 803 303 799T325 784T347 756L452 614L412 575L273 680L133 575Z" />
<glyph unicode="&#xe3;" horiz-adv-x="578" d="M190 -14Q118 -14 78 23T37 122Q37 182 67 216T162 265T327 285V353Q327 390 319 413T293 448T242 460Q220 460 198 454T161 437Q171 422 176 410T185 390T188 376Q188 354 169 339T113 324Q79 324 62 340T45 384Q45
424 73 456T152 507T269 526Q344 526 391 506T462 443T486 335V125Q486 102 495 91T524 80Q534 80 544 82T564 87L577 31Q557 13 524 0T456 -14Q408 -14 380 9T344 69Q330 46 309 27T259 -3T190 -14ZM252 73Q275 73 291 82T317 109T327 150V220Q282 220 252 212T208
185T194 139Q194 109 208 91T252 73ZM348 607Q325 607 304 613T256 630Q235 640 222 645T198 652T179 655Q167 655 157 647T134 616L84 645Q103 691 119 716T155 752T200 763Q223 763 243 757T289 738Q316 728 333 722T365 715Q380 715 389 723T410 754L460 726Q442
682 426 656T392 619T348 607Z" />
<glyph unicode="&#xe4;" horiz-adv-x="578" d="M190 -14Q118 -14 78 23T37 122Q37 182 67 216T162 265T327 285V353Q327 390 319 413T293 448T242 460Q220 460 198 454T161 437Q171 422 176 410T185 390T188 376Q188 354 169 339T113 324Q79 324 62 340T45 384Q45
424 73 456T152 507T269 526Q344 526 391 506T462 443T486 335V125Q486 102 495 91T524 80Q534 80 544 82T564 87L577 31Q557 13 524 0T456 -14Q408 -14 380 9T344 69Q330 46 309 27T259 -3T190 -14ZM252 73Q275 73 291 82T317 109T327 150V220Q282 220 252 212T208
185T194 139Q194 109 208 91T252 73ZM390 608Q353 608 329 629T305 688Q305 723 329 744T390 766Q432 766 454 745T476 688Q476 652 452 630T390 608ZM162 608Q124 608 101 629T77 688Q77 723 100 744T162 766Q204 766 225 745T247 688Q247 652 223 630T162 608Z"
/>
<glyph unicode="&#xe5;" horiz-adv-x="578" d="M190 -14Q118 -14 78 23T37 122Q37 182 67 216T162 265T327 285V353Q327 390 319 413T293 448T242 460Q220 460 198 454T161 437Q171 422 176 410T185 390T188 376Q188 354 169 339T113 324Q79 324 62 340T45 384Q45
424 73 456T152 507T269 526Q344 526 391 506T462 443T486 335V125Q486 102 495 91T524 80Q534 80 544 82T564 87L577 31Q557 13 524 0T456 -14Q408 -14 380 9T344 69Q330 46 309 27T259 -3T190 -14ZM252 73Q275 73 291 82T317 109T327 150V220Q282 220 252 212T208
185T194 139Q194 109 208 91T252 73ZM267 580Q202 580 167 611T132 693Q132 728 149 753T199 791T276 805Q345 805 379 776T413 694Q413 659 395 634T345 594T267 580ZM272 634Q288 634 296 641T309 661T314 693Q314 714 309 726T295 745T271 751Q256 751 247 745T234
725T229 693Q229 673 233 660T247 641T272 634Z" />
<glyph unicode="&#xe6;" horiz-adv-x="849" d="M190 -14Q147 -14 113 1T58 46T37 123Q37 188 75 224T185 272Q216 278 253 281T327 285V353Q327 392 319 415T292 449T242 460Q217 460 196 453T161 437Q171 421 176 410T185 390T188 376Q188 355 169 340T113 324Q77
324 61 341T45 384Q45 424 73 456T153 507T269 526Q319 526 359 513T429 466Q463 496 505 511T595 526Q660 526 708 504T784 439T812 334Q812 309 809 284T800 235H487Q489 193 505 163T551 117T621 101Q672 101 707 117T772 155L819 100Q783 54 724 20T583 -14Q512
-14 461 9T380 74Q359 41 329 22T264 -6T190 -14ZM252 73Q269 73 286 80T315 105T327 152V220Q307 220 289 218T257 212Q221 204 208 184T194 139Q194 106 210 90T252 73ZM486 313H656Q658 325 659 337T660 361Q660 404 641 426T586 449Q550 449 529 430T499 379T486
313Z" />
<glyph unicode="&#xe7;" horiz-adv-x="543" d="M304 -243Q259 -243 226 -230T178 -204L200 -153Q218 -163 236 -167T271 -172Q292 -172 304 -162T317 -133Q317 -116 306 -107T271 -98Q261 -98 253 -99T236 -102L225 -70L248 -11Q181 -3 134 31T62 120T37 246Q37
330 69 393T163 491T311 526Q374 526 419 507T489 457T514 388Q514 366 506 348T479 318T431 306Q397 306 378 321T358 362Q358 374 363 388T383 428Q367 438 350 442T309 446Q276 446 252 427T214 370T200 278Q200 192 235 147T338 102Q375 102 408 113T476 149L521
90Q487 48 437 20T321 -13L307 -49Q345 -44 371 -54T411 -85T425 -137Q425 -171 410 -195T368 -231T304 -243Z" />
<glyph unicode="&#xe8;" horiz-adv-x="565" d="M298 -14Q214 -14 156 18T67 108T37 244Q37 334 72 397T169 493T311 526Q377 526 425 504T500 438T527 334Q527 310 525 285T516 236H202Q205 192 222 162T268 116T337 101Q382 101 418 115T487 155L535 100Q496
49 435 18T298 -14ZM202 313H372Q374 325 374 337T375 361Q375 404 357 426T302 449Q271 449 250 433T217 386T202 313ZM349 575L201 674Q182 687 173 702T163 734Q163 747 169 762T190 789T225 801Q240 801 251 795T275 769L384 611L349 575Z" />
<glyph unicode="&#xe9;" horiz-adv-x="565" d="M298 -14Q214 -14 156 18T67 108T37 244Q37 334 72 397T169 493T311 526Q377 526 425 504T500 438T527 334Q527 310 525 285T516 236H202Q205 192 222 162T268 116T337 101Q382 101 418 115T487 155L535 100Q496
49 435 18T298 -14ZM202 313H372Q374 325 374 337T375 361Q375 404 357 426T302 449Q271 449 250 433T217 386T202 313ZM252 575L217 611L327 769Q339 788 350 794T376 801Q398 801 411 790T431 763T438 734Q438 718 429 703T400 674L252 575Z" />
<glyph unicode="&#xea;" horiz-adv-x="565" d="M298 -14Q214 -14 156 18T67 108T37 244Q37 334 72 397T169 493T311 526Q377 526 425 504T500 438T527 334Q527 310 525 285T516 236H202Q205 192 222 162T268 116T337 101Q382 101 418 115T487 155L535 100Q496
49 435 18T298 -14ZM202 313H372Q374 325 374 337T375 361Q375 404 357 426T302 449Q271 449 250 433T217 386T202 313ZM161 575L121 613L233 765Q250 788 265 795T301 803Q320 803 331 799T353 784T375 756L480 614L440 575L301 680L161 575Z" />
<glyph unicode="&#xeb;" horiz-adv-x="565" d="M298 -14Q214 -14 156 18T67 108T37 244Q37 334 72 397T169 493T311 526Q377 526 425 504T500 438T527 334Q527 310 525 285T516 236H202Q205 192 222 162T268 116T337 101Q382 101 418 115T487 155L535 100Q496
49 435 18T298 -14ZM202 313H372Q374 325 374 337T375 361Q375 404 357 426T302 449Q271 449 250 433T217 386T202 313ZM418 608Q381 608 357 629T333 688Q333 723 357 744T418 766Q460 766 482 745T504 688Q504 652 480 630T418 608ZM190 608Q152 608 129 629T105
688Q105 723 128 744T190 766Q232 766 253 745T275 688Q275 652 251 630T190 608Z" />
<glyph unicode="&#xec;" horiz-adv-x="364" d="M34 0V70L80 78Q98 81 103 90T108 127V363Q108 399 102 410T73 426L34 432L41 507L252 518L267 510V125Q267 100 272 91T296 78L341 69V0H34ZM456 575L308 674Q289 687 280 702T270 734Q270 747 276 762T297 789T332
801Q347 801 358 795T382 769L491 611L456 575Z" />
<glyph unicode="&#xed;" horiz-adv-x="364" d="M34 0V70L80 78Q98 81 103 90T108 127V363Q108 399 102 410T73 426L34 432L41 507L252 518L267 510V125Q267 100 272 91T296 78L341 69V0H34ZM359 575L324 611L434 769Q446 788 457 794T483 801Q505 801 518 790T538
763T545 734Q545 718 536 703T507 674L359 575Z" />
<glyph unicode="&#xee;" horiz-adv-x="364" d="M34 0V70L80 78Q98 81 103 90T108 127V363Q108 399 102 410T73 426L34 432L41 507L252 518L267 510V125Q267 100 272 91T296 78L341 69V0H34ZM268 575L228 613L340 765Q357 788 372 795T408 803Q427 803 438 799T460
784T482 756L587 614L547 575L408 680L268 575Z" />
<glyph unicode="&#xef;" horiz-adv-x="364" d="M34 0V70L80 78Q98 81 103 90T108 127V363Q108 399 102 410T73 426L34 432L41 507L252 518L267 510V125Q267 100 272 91T296 78L341 69V0H34ZM525 608Q488 608 464 629T440 688Q440 723 464 744T525 766Q567 766
589 745T611 688Q611 652 587 630T525 608ZM297 608Q259 608 236 629T212 688Q212 723 235 744T297 766Q339 766 360 745T382 688Q382 652 358 630T297 608Z" />
<glyph unicode="&#xf0;" horiz-adv-x="601" d="M286 -14Q172 -14 105 52T37 240Q37 308 57 357T111 436T186 481T269 496Q314 496 349 478T408 429L412 430Q407 464 395 500T365 568T329 621L223 544L179 615L257 667Q229 683 194 695T116 712L128 783Q189 781
246 770T351 734L475 825L516 752L426 690Q470 655 501 606T549 492T566 350Q566 265 550 198T499 83T412 11T286 -14ZM306 69Q338 69 359 88T392 146T403 246Q403 272 402 294T397 334T386 366Q376 387 354 400T303 413Q271 413 249 393T214 335T202 244Q202 202
208 170T226 115T259 81T306 69Z" />
<glyph unicode="&#xf1;" horiz-adv-x="694" d="M43 0V69L83 77Q99 80 104 89T109 125V368Q109 401 103 412T75 427L35 433L43 507L231 520L246 511L253 420H257Q282 469 327 497T435 526Q492 526 529 505T584 445T602 355V116Q602 95 608 87T633 75L670 69V0H386V68L416
74Q433 77 438 85T443 116V314Q443 353 436 375T413 408T369 418Q340 418 317 406T281 368T268 300V119Q268 97 272 88T293 75L328 68V0H43ZM429 607Q406 607 385 613T337 630Q316 640 303 645T279 652T260 655Q248 655 238 647T215 616L165 645Q184 691 200 716T236
752T281 763Q304 763 324 757T370 738Q397 728 414 722T446 715Q461 715 470 723T491 754L541 726Q523 682 507 656T473 619T429 607Z" />
<glyph unicode="&#xf2;" horiz-adv-x="624" d="M306 -14Q221 -14 161 16T69 105T37 247Q37 340 72 402T173 495T324 526Q403 526 462 498T554 413T588 268Q588 178 554 115T457 19T306 -14ZM319 73Q355 73 377 92T409 150T419 247Q419 299 412 336T390 396T355
430T308 441Q276 441 253 425T217 373T205 278Q205 210 217 165T255 96T319 73ZM362 575L214 674Q195 687 186 702T176 734Q176 747 182 762T203 789T238 801Q253 801 264 795T288 769L397 611L362 575Z" />
<glyph unicode="&#xf3;" horiz-adv-x="624" d="M306 -14Q221 -14 161 16T69 105T37 247Q37 340 72 402T173 495T324 526Q403 526 462 498T554 413T588 268Q588 178 554 115T457 19T306 -14ZM319 73Q355 73 377 92T409 150T419 247Q419 299 412 336T390 396T355
430T308 441Q276 441 253 425T217 373T205 278Q205 210 217 165T255 96T319 73ZM265 575L230 611L340 769Q352 788 363 794T389 801Q411 801 424 790T444 763T451 734Q451 718 442 703T413 674L265 575Z" />
<glyph unicode="&#xf4;" horiz-adv-x="624" d="M306 -14Q221 -14 161 16T69 105T37 247Q37 340 72 402T173 495T324 526Q403 526 462 498T554 413T588 268Q588 178 554 115T457 19T306 -14ZM319 73Q355 73 377 92T409 150T419 247Q419 299 412 336T390 396T355
430T308 441Q276 441 253 425T217 373T205 278Q205 210 217 165T255 96T319 73ZM174 575L134 613L246 765Q263 788 278 795T314 803Q333 803 344 799T366 784T388 756L493 614L453 575L314 680L174 575Z" />
<glyph unicode="&#xf5;" horiz-adv-x="624" d="M306 -14Q221 -14 161 16T69 105T37 247Q37 340 72 402T173 495T324 526Q403 526 462 498T554 413T588 268Q588 178 554 115T457 19T306 -14ZM319 73Q355 73 377 92T409 150T419 247Q419 299 412 336T390 396T355
430T308 441Q276 441 253 425T217 373T205 278Q205 210 217 165T255 96T319 73ZM389 607Q366 607 345 613T297 630Q276 640 263 645T239 652T220 655Q208 655 198 647T175 616L125 645Q144 691 160 716T196 752T241 763Q264 763 284 757T330 738Q357 728 374 722T406
715Q421 715 430 723T451 754L501 726Q483 682 467 656T433 619T389 607Z" />
<glyph unicode="&#xf6;" horiz-adv-x="624" d="M306 -14Q221 -14 161 16T69 105T37 247Q37 340 72 402T173 495T324 526Q403 526 462 498T554 413T588 268Q588 178 554 115T457 19T306 -14ZM319 73Q355 73 377 92T409 150T419 247Q419 299 412 336T390 396T355
430T308 441Q276 441 253 425T217 373T205 278Q205 210 217 165T255 96T319 73ZM431 608Q394 608 370 629T346 688Q346 723 370 744T431 766Q473 766 495 745T517 688Q517 652 493 630T431 608ZM203 608Q165 608 142 629T118 688Q118 723 141 744T203 766Q245 766
266 745T288 688Q288 652 264 630T203 608Z" />
<glyph unicode="&#xf7;" horiz-adv-x="582" d="M72 253V360H510V253H72ZM290 50Q258 50 234 71T210 125Q210 157 234 179T290 201Q324 201 348 180T372 126Q372 94 348 72T290 50ZM290 410Q258 410 234 431T210 485Q210 517 234 539T290 561Q324 561 348 540T372
486Q372 454 348 432T290 410Z" />
<glyph unicode="&#xf8;" horiz-adv-x="624" d="M23 -19L98 67Q68 99 53 144T37 247Q37 340 72 402T173 495T324 526Q363 526 398 519T462 496L494 534H589L522 454Q553 423 570 377T588 268Q588 178 554 115T457 19T306 -14Q261 -14 224 -4T156 24L118 -19H23ZM319
73Q355 73 377 92T409 150T419 247Q419 267 417 285T409 318L236 119Q246 104 258 94T285 78T319 73ZM212 205L383 402Q374 416 363 424T338 437T308 441Q276 441 253 425T217 373T205 278Q205 258 206 240T212 205Z" />
<glyph unicode="&#xf9;" horiz-adv-x="676" d="M255 -14Q175 -14 134 30T92 157V365Q92 397 87 410T58 427L21 433L28 507L235 520L251 511V196Q251 158 258 136T280 104T322 94Q353 94 375 107T408 148T420 213V366Q420 402 414 412T386 427L352 433L363 507L563
520L579 511V133Q579 104 585 93T610 78L650 71V0L445 -8L431 79H427Q408 52 386 31T332 -2T255 -14ZM368 575L220 674Q201 687 192 702T182 734Q182 747 188 762T209 789T244 801Q259 801 270 795T294 769L403 611L368 575Z" />
<glyph unicode="&#xfa;" horiz-adv-x="676" d="M255 -14Q175 -14 134 30T92 157V365Q92 397 87 410T58 427L21 433L28 507L235 520L251 511V196Q251 158 258 136T280 104T322 94Q353 94 375 107T408 148T420 213V366Q420 402 414 412T386 427L352 433L363 507L563
520L579 511V133Q579 104 585 93T610 78L650 71V0L445 -8L431 79H427Q408 52 386 31T332 -2T255 -14ZM271 575L236 611L346 769Q358 788 369 794T395 801Q417 801 430 790T450 763T457 734Q457 718 448 703T419 674L271 575Z" />
<glyph unicode="&#xfb;" horiz-adv-x="676" d="M255 -14Q175 -14 134 30T92 157V365Q92 397 87 410T58 427L21 433L28 507L235 520L251 511V196Q251 158 258 136T280 104T322 94Q353 94 375 107T408 148T420 213V366Q420 402 414 412T386 427L352 433L363 507L563
520L579 511V133Q579 104 585 93T610 78L650 71V0L445 -8L431 79H427Q408 52 386 31T332 -2T255 -14ZM180 575L140 613L252 765Q269 788 284 795T320 803Q339 803 350 799T372 784T394 756L499 614L459 575L320 680L180 575Z" />
<glyph unicode="&#xfc;" horiz-adv-x="676" d="M255 -14Q175 -14 134 30T92 157V365Q92 397 87 410T58 427L21 433L28 507L235 520L251 511V196Q251 158 258 136T280 104T322 94Q353 94 375 107T408 148T420 213V366Q420 402 414 412T386 427L352 433L363 507L563
520L579 511V133Q579 104 585 93T610 78L650 71V0L445 -8L431 79H427Q408 52 386 31T332 -2T255 -14ZM437 608Q400 608 376 629T352 688Q352 723 376 744T437 766Q479 766 501 745T523 688Q523 652 499 630T437 608ZM209 608Q171 608 148 629T124 688Q124 723 147
744T209 766Q251 766 272 745T294 688Q294 652 270 630T209 608Z" />
<glyph unicode="&#xfd;" horiz-adv-x="611" d="M138 -230Q81 -230 46 -204T10 -133Q10 -100 30 -77T85 -54Q116 -54 131 -67T147 -99Q147 -108 144 -123T135 -160Q160 -163 179 -152T213 -116T246 -50L263 -11L88 381Q77 405 70 415T45 430L12 437L22 512H308V440L270
435Q250 432 245 421T251 381L344 153H349L438 375Q448 399 444 413T417 432L379 440L391 512H608V439L573 432Q556 428 548 418T525 376L356 -27Q334 -79 313 -117T267 -180T211 -217T138 -230ZM278 575L243 611L353 769Q365 788 376 794T402 801Q424 801 437
790T457 763T464 734Q464 718 455 703T426 674L278 575Z" />
<glyph unicode="&#xfe;" horiz-adv-x="646" d="M18 -217V-148L57 -141Q73 -138 79 -128T85 -93V616Q85 638 83 650T72 668T45 677L10 682L16 758L229 767L243 756V446L245 441Q263 465 284 484T336 515T408 526Q472 526 517 498T586 414T610 276Q610 186 583 122T502
22T366 -13Q326 -13 295 -5T244 16V-93Q244 -118 250 -128T277 -141L339 -149V-217H18ZM338 82Q376 82 398 102T431 162T442 264Q442 317 432 353T401 408T346 427Q318 427 295 414T258 374T244 304V113Q261 99 288 91T338 82Z" />
<glyph unicode="&#xff;" horiz-adv-x="611" d="M138 -230Q81 -230 46 -204T10 -133Q10 -100 30 -77T85 -54Q116 -54 131 -67T147 -99Q147 -108 144 -123T135 -160Q160 -163 179 -152T213 -116T246 -50L263 -11L88 381Q77 405 70 415T45 430L12 437L22 512H308V440L270
435Q250 432 245 421T251 381L344 153H349L438 375Q448 399 444 413T417 432L379 440L391 512H608V439L573 432Q556 428 548 418T525 376L356 -27Q334 -79 313 -117T267 -180T211 -217T138 -230ZM444 608Q407 608 383 629T359 688Q359 723 383 744T444 766Q486
766 508 745T530 688Q530 652 506 630T444 608ZM216 608Q178 608 155 629T131 688Q131 723 154 744T216 766Q258 766 279 745T301 688Q301 652 277 630T216 608Z" />
<glyph unicode="&#x2013;" horiz-adv-x="500" d="M15 245V330H485V245H15Z" />
<glyph unicode="&#x2014;" horiz-adv-x="1000" d="M15 245V330H985V245H15Z" />
<glyph unicode="&#x2018;" horiz-adv-x="307" d="M157 492Q111 492 87 519T63 587Q63 623 78 660T125 732T200 793L236 744Q199 718 180 693T157 639H173Q191 639 207 632T233 611T244 572Q244 537 220 515T157 492Z" />
<glyph unicode="&#x2019;" horiz-adv-x="307" d="M106 481L71 530Q109 556 128 581T150 635H133Q116 635 100 642T73 664T63 702Q63 737 87 759T149 782Q195 782 219 755T244 687Q244 652 229 615T183 543T106 481Z" />
<glyph unicode="&#x201a;" horiz-adv-x="310" d="M108 -174L73 -125Q110 -100 129 -74T151 -20H135Q118 -20 102 -13T75 8T65 47Q65 81 88 103T151 126Q197 126 221 99T245 31Q245 -4 230 -41T184 -113T108 -174Z" />
<glyph unicode="&#x201c;" horiz-adv-x="531" d="M157 492Q111 492 87 519T63 587Q63 623 78 660T125 732T200 793L236 744Q199 718 180 693T157 639H173Q191 639 207 632T233 611T244 572Q244 537 220 515T157 492ZM381 492Q336 492 312 519T287 587Q287 623
302 660T349 732T425 793L460 744Q423 718 404 693T381 639H397Q415 639 431 632T458 611T468 572Q468 537 444 515T381 492Z" />
<glyph unicode="&#x201d;" horiz-adv-x="531" d="M106 481L71 530Q109 556 128 581T150 635H133Q116 635 100 642T73 664T63 702Q63 737 87 759T149 782Q195 782 219 755T244 687Q244 652 229 615T183 543T106 481ZM331 481L295 530Q314 543 328 555T351 581T366
607T374 635H357Q340 635 324 642T298 664T287 702Q287 737 311 759T374 782Q420 782 444 755T468 687Q468 652 453 615T407 543T331 481Z" />
<glyph unicode="&#x201e;" horiz-adv-x="477" d="M304 -174L268 -125Q306 -100 325 -74T347 -20H330Q313 -20 297 -13T270 8T260 47Q260 81 284 103T347 126Q392 126 416 99T441 31Q441 -4 426 -41T380 -113T304 -174ZM79 -174L44 -125Q82 -100 101 -74T122 -20H106Q89
-20 73 -13T46 8T36 47Q36 81 59 103T122 126Q168 126 192 99T217 31Q217 -4 202 -41T156 -113T79 -174Z" />
<glyph unicode="&#x2022;" horiz-adv-x="390" d="M195 184Q133 184 97 217T60 306Q60 359 96 393T195 428Q259 428 294 394T330 306Q330 251 293 218T195 184Z" />
<glyph unicode="&#x2039;" horiz-adv-x="321" d="M243 39L64 202Q47 217 40 232T33 265Q33 285 42 299T69 332L241 491L294 451L178 269L297 79L243 39Z" />
<glyph unicode="&#x203a;" horiz-adv-x="320" d="M78 39L25 79L143 268L25 450L79 491L253 331Q270 316 279 301T288 266Q288 248 281 234T255 201L78 39Z" />
</font>
</defs>
</svg>
